<svg id="Warstwa_1" data-name="Warstwa 1" xmlns="http://www.w3.org/2000/svg" viewBox="0 0 200 100"><defs><style>.cls-1{fill:#e5262b;}</style></defs><title>loga-nastrone25wat</title><g id="dawtona"><path class="cls-1" d="M63.76,58.23c-1.94,2.54-4.51,4.68-7.14,4.68-2.34,0-3.75-1.86-3.75-4.88,0-8.52,7.78-15.34,16-15.34,3.94,0,5.77,1.21,5.77,1.21S70,53.87,70,58.47a2.62,2.62,0,0,0,1.54,2.71,11.81,11.81,0,0,1-6,2.06c-1.5,0-2.14-.81-2.14-2.47a13.52,13.52,0,0,1,.36-2.54m4.08-12.41c-4.68.24-8.56,5.86-8.56,10.78,0,.89.29,1.61,1.09,1.61,3.43,0,6.26-9.08,7.47-12.4"/><path class="cls-1" d="M90.89,58.79c3.46,0,6.76-8.35,6.76-12.4,0-3.15-.88-4-.88-4a4.91,4.91,0,0,1,1.61-.28c3,0,5,1.77,5,5.4,0,5.49-7.14,15.63-15,15.63-2.63,0-3.92-1.66-3.92-4.29v-.36c-1.77,2.5-4.32,4.65-7.06,4.65-2.51,0-3.88-1.62-3.88-4.16a14.53,14.53,0,0,1,1.33-5.49L78.6,43.9A19.13,19.13,0,0,1,83.52,43c1.25,0,1.62.45,1.62,1.66,0,3.51-5.49,10.25-5.49,13.28a.84.84,0,0,0,.79.89h0c2.26,0,4.24-3.39,5.73-7.55l2.66-7.39A15.34,15.34,0,0,1,93.57,43c1.25,0,1.65.45,1.65,1.66,0,3.51-5.16,10.25-5.16,13.28a.78.78,0,0,0,.67.88h.13"/><path class="cls-1" d="M106.38,48.5a2.6,2.6,0,0,1-1.53-2.42,3.47,3.47,0,0,1,.65-2,6.49,6.49,0,0,0,2.58.72l2.3-5.16a10.47,10.47,0,0,1,4.16-.89c.89,0,1.25.4,1.25,1.13,0,1-.77,3-1.69,5.21a18,18,0,0,0,4.88-.89,3.38,3.38,0,0,1,.12,1c0,3.2-1.94,4.44-6.94,4.44-1.09,2.63-2,5.05-2,6.42,0,1.13.52,1.5,1.49,1.5,2.14,0,3.52-2.19,3.52-2.19a1.8,1.8,0,0,1,.56,1.5c0,2.46-3.26,6.2-7.89,6.34-3.27,0-4.81-1.41-4.81-4.36,0-2.79,1.61-6.21,3.19-9.85Z"/><path class="cls-1" d="M129.56,47.81a4,4,0,0,1,3-1.41c1.94,0,3.1,1,3.1,3.27,0,5.5-5.61,13.54-12.47,13.54-3.43,0-5.33-2.06-5.33-5.73,0-7.75,6.54-14.78,12.83-14.78,4.32,0,4.65,3.31,4.65,3.31a6.33,6.33,0,0,0-2.63-.64c-4.68,0-8.35,5.44-8.35,10.41,0,1.69.68,2.71,2.13,2.71,2.46,0,4.72-4.45,4.72-8,0-2.38-1.65-2.66-1.65-2.66"/><path class="cls-1" d="M140.53,43.82a9.25,9.25,0,0,1,3.88-.81c1.29,0,1.73.45,1.73,1.58a12,12,0,0,1-.65,3.14c2-2.5,4.85-4.64,7.55-4.64,2.42,0,3.68,1.66,3.68,4.28,0,4.12-4.65,9.36-4.65,12.27,0,1.86,1.09,1.94,1.09,1.94a15.57,15.57,0,0,1-5.89,1.34c-1.74,0-2.79-.81-2.79-2.31,0-3.94,6.14-9.58,6.14-12.31,0-.48-.24-.89-.77-.89-4,0-8.11,9.36-8.84,14.41a11.9,11.9,0,0,1-4.51,1c-1.17,0-1.66-.44-1.66-1.49a22.89,22.89,0,0,1,1.66-6.21Z"/><path class="cls-1" d="M167.21,58.23c-1.93,2.54-4.51,4.68-7.14,4.68-2.34,0-3.76-1.86-3.76-4.88,0-8.52,7.79-15.34,16-15.34,3.95,0,5.78,1.21,5.78,1.21s-4.68,10-4.68,14.57A2.62,2.62,0,0,0,175,61.18a11.81,11.81,0,0,1-6,2.06c-1.49,0-2.14-.81-2.14-2.47a12.76,12.76,0,0,1,.37-2.54m4.07-12.41c-4.68.24-8.55,5.86-8.55,10.78,0,.89.28,1.61,1.09,1.61,3.43,0,6.26-9.08,7.47-12.4"/><path class="cls-1" d="M41,34.25c-8.23,0-14.73,4.12-14.73,10,0,4,4.08,4.4,4.08,4.4a10.83,10.83,0,0,1,5-9C34,44.32,29.85,52,27.9,56.85l-.17.38c-.07.15-.15.4-.24.67-.19.52-.35,1.05-.49,1.59-1,0-3.06-1.05-4.41-2.26l-.52-.51c-.1.08-.18.32-.18.87A5.73,5.73,0,0,0,24.81,62a14.2,14.2,0,0,0,7,1.75c.38,0,.78,0,1.22,0,10.41,0,20.62-9.28,20.62-19.86C53.67,37.36,48.83,34.25,41,34.25ZM34.26,60.37c1.37-5.17,5.44-12.56,8.27-22.56,2.46.36,4.24,2,4.24,5.45C46.77,50.88,40.71,59.88,34.26,60.37Z"/></g></svg>