<svg id="Warstwa_1" data-name="Warstwa 1" xmlns="http://www.w3.org/2000/svg" viewBox="0 0 200 100"><defs><style>.cls-1{fill:#e30613;stroke:#e30613;stroke-miterlimit:2.61;stroke-width:0.22px;fill-rule:evenodd;}</style></defs><title>loga-nastrone25wat</title><g id="neonet"><polygon class="cls-1" points="143.46 33.94 165.46 33.94 194.87 33.96 194.87 40.78 184.97 40.87 185 65.77 175.32 65.77 175.32 40.78 169.38 40.79 169.38 40.8 153.16 40.8 153.16 45.91 168.21 45.91 168.21 52.46 153.16 52.46 153.16 58.78 169.86 58.78 169.86 66.06 143.46 66.06 143.46 33.94 143.46 33.94"/><polygon class="cls-1" points="106.73 33.94 116.63 33.94 129.53 51.71 129.53 33.94 139.52 33.94 139.52 66.06 129.53 66.06 116.69 48.43 116.69 66.06 106.73 66.06 106.73 33.94 106.73 33.94"/><polygon class="cls-1" points="41.49 33.94 67.41 33.94 67.41 40.8 51.18 40.8 51.18 45.91 66.23 45.91 66.23 52.46 51.18 52.46 51.18 58.78 67.88 58.78 67.88 66.06 41.49 66.06 41.49 33.94 41.49 33.94"/><polygon class="cls-1" points="5.13 33.94 14.69 33.94 27.14 51.71 27.14 33.94 36.78 33.94 36.78 66.06 27.14 66.06 14.75 48.43 14.75 66.06 5.13 66.06 5.13 33.94 5.13 33.94"/><path class="cls-1" d="M79.8,50.06q0,4.88,1.89,7A7.41,7.41,0,0,0,92,57.1c1.22-1.39,1.84-3.88,1.84-7.47,0-3-.64-5.23-1.92-6.63a6.72,6.72,0,0,0-5.2-2.09,6.45,6.45,0,0,0-5,2.12c-1.26,1.42-1.9,3.77-1.9,7ZM69.39,50c0-5.24,1.54-9.33,4.6-12.24s7.32-4.39,12.78-4.39,9.92,1.44,13,4.31,4.55,6.89,4.55,12.06a19,19,0,0,1-2,9.23,13.86,13.86,0,0,1-5.74,5.61,19.66,19.66,0,0,1-9.35,2,22.54,22.54,0,0,1-9.43-1.73,14,14,0,0,1-6.05-5.48A17.6,17.6,0,0,1,69.39,50Z"/></g></svg>