<svg id="Warstwa_1" data-name="Warstwa 1" xmlns="http://www.w3.org/2000/svg" viewBox="0 0 200 100"><defs><style>.cls-1{fill:#28347e;}</style></defs><title>ovh</title><g id="ovh"><path class="cls-1" d="M81.81,30.12a38.14,38.14,0,0,1-3.56,42.31H57.86l6.28-11.09h-8.3l9.78-17.25H74l7.84-14ZM41.54,72.43H20.75A37.64,37.64,0,0,1,17.15,30L30.63,53.45,45.5,27.57H67.37L41.55,72.41h0Z"/><path class="cls-1" d="M99,51.61c0-12,6-17.73,15.76-17.73s15.75,5.75,15.75,17.73-6,17.66-15.75,17.66S99,63.47,99,51.61Zm3.54,0c0,9.84,4.49,14.53,12.22,14.53S127,61.45,127,51.61,122.47,37,114.75,37,102.53,41.71,102.53,51.61Z"/><path class="cls-1" d="M156.24,35.3a1.73,1.73,0,0,1,1.62-1.11,1.7,1.7,0,0,1,1.71,1.69v0a2.44,2.44,0,0,1-.15.75L147.6,67.8a1.69,1.69,0,0,1-2.12,1.1,1.72,1.72,0,0,1-1.1-1.1L132.57,36.66a2.44,2.44,0,0,1-.15-.75,1.7,1.7,0,0,1,1.68-1.72h0a1.73,1.73,0,0,1,1.62,1.11L146,62.46Z"/><path class="cls-1" d="M166.74,52.71V67.25a1.72,1.72,0,1,1-3.43.26,1.13,1.13,0,0,1,0-.26V35.87a1.72,1.72,0,1,1,3.43-.26v14h17.57V35.91a1.72,1.72,0,1,1,3.44-.26V67.29a1.72,1.72,0,0,1-3.44.25V52.71Z"/></g></svg>