<?xml version="1.0" encoding="utf-8"?>
<!-- Generator: Adobe Illustrator 24.0.2, SVG Export Plug-In . SVG Version: 6.00 Build 0)  -->
<svg version="1.1" id="Warstwa_1" xmlns="http://www.w3.org/2000/svg" xmlns:xlink="http://www.w3.org/1999/xlink" x="0px" y="0px"
	 viewBox="0 0 112 112" style="enable-background:new 0 0 112 112;" xml:space="preserve">
<style type="text/css">
	.st0{fill:none;stroke:#0600FF;stroke-width:3.5187;stroke-miterlimit:10;}
	.st1{fill:none;stroke:#0600FF;stroke-width:4;stroke-linecap:round;stroke-miterlimit:10;}
	.st2{fill:none;stroke:#0600FF;stroke-width:4;stroke-miterlimit:10;}
	.st3{fill:none;stroke:#0600FF;stroke-width:2.5;stroke-linecap:round;stroke-miterlimit:10;}
	.st4{fill:none;stroke:#0600FF;stroke-width:0.2726;stroke-miterlimit:10;}
	.st5{fill:#0600FF;stroke:#0600FF;stroke-width:0.2726;stroke-miterlimit:10;}
	.st6{fill:none;}
	.st7{fill:#0600FF;}
	.st8{fill:none;stroke:#0600FF;stroke-width:2;stroke-miterlimit:10;}
	.st9{fill:none;stroke:#0600FF;stroke-width:2;stroke-linecap:round;stroke-miterlimit:10;}
	.st10{fill:none;stroke:#0600FF;stroke-width:2.26;stroke-miterlimit:10;}
	.st11{fill:none;stroke:#0600FF;stroke-width:2.256;stroke-miterlimit:10;}
	.st12{fill:none;stroke:#0600FF;stroke-width:1.2339;stroke-linecap:round;stroke-miterlimit:10;}
	.st13{fill:none;stroke:#0600FF;stroke-width:3;stroke-miterlimit:10;}
	.st14{fill:none;stroke:#0600FF;stroke-width:3;stroke-linecap:round;stroke-miterlimit:10;}
</style>
<g>
	<g>
		<path class="st6" d="M74.323,104.035V92.082c0-1.301,4.627-7.749,6.378-7.749c1.751,0,6.378,6.448,6.378,7.749v6.853
			c2.478-1.799,4.794-3.805,6.924-5.996L55.946,25.15L17.928,92.868c2.176,2.247,4.547,4.3,7.088,6.136v-6.922
			c0-1.301,4.627-7.749,6.378-7.749s6.378,6.448,6.378,7.749v11.953c0,0.578-0.205,1.108-0.55,1.556
			c1.451,0.551,2.933,1.036,4.441,1.46V95.283c0-2.03,1.653-3.683,3.683-3.683h21.198c2.03,0,3.683,1.653,3.683,3.683v11.787h0.043
			c1.557-0.436,3.086-0.938,4.583-1.509C74.522,105.119,74.323,104.601,74.323,104.035z M61.94,48.104l0.458-0.241l0.458,0.241
			c1.827,0.961,4.892,2.827,4.892,4.515c0,0.543-0.439,0.982-0.982,0.982s-0.982-0.439-0.982-0.982
			c-0.14-0.41-1.697-1.584-3.386-2.528c-1.69,0.947-3.247,2.125-3.392,2.593c0,0.543-0.436,0.95-0.979,0.95
			c-0.542,0-0.978-0.472-0.978-1.015C57.047,50.93,60.113,49.065,61.94,48.104z M49.428,47.927l0.458-0.241l0.458,0.241
			c1.827,0.961,4.892,2.827,4.892,4.515c0,0.543-0.439,0.982-0.982,0.982c-0.543,0-0.982-0.439-0.982-0.982
			c-0.14-0.41-1.697-1.584-3.386-2.528c-1.69,0.947-3.247,2.125-3.392,2.593c0,0.543-0.436,0.95-0.979,0.95
			c-0.542,0-0.978-0.472-0.978-1.015C44.536,50.754,47.601,48.888,49.428,47.927z M41.649,78.556c-0.543,0-0.982-0.439-0.982-0.982
			c-0.14-0.41-1.697-1.584-3.386-2.528c-1.69,0.947-3.247,2.125-3.392,2.593c0,0.543-0.436,0.95-0.979,0.95
			c-0.542,0-0.978-0.472-0.978-1.015c0-1.688,3.065-3.554,4.892-4.515l0.458-0.241l0.458,0.241c1.827,0.961,4.892,2.827,4.892,4.515
			C42.631,78.116,42.191,78.556,41.649,78.556z M40.358,65.401c0,0.543-0.436,0.95-0.979,0.95c-0.542,0-0.978-0.472-0.978-1.015
			c0-1.688,3.065-3.554,4.892-4.515l0.458-0.241l0.458,0.241c1.827,0.961,4.893,2.826,4.893,4.515c0,0.543-0.439,0.982-0.982,0.982
			c-0.543,0-0.982-0.439-0.982-0.982c-0.139-0.408-1.697-1.582-3.387-2.528C42.06,63.755,40.503,64.934,40.358,65.401z
			 M54.244,78.556c-0.543,0-0.982-0.439-0.982-0.982c-0.14-0.41-1.697-1.584-3.386-2.528c-1.69,0.947-3.247,2.125-3.392,2.593
			c0,0.543-0.436,0.95-0.979,0.95c-0.542,0-0.978-0.472-0.978-1.015c0-1.688,3.065-3.554,4.892-4.515l0.458-0.241l0.458,0.241
			c1.827,0.961,4.892,2.827,4.892,4.515C55.226,78.116,54.787,78.556,54.244,78.556z M52.614,65.402c0,0.543-0.436,0.95-0.979,0.95
			c-0.542,0-0.978-0.472-0.978-1.015c0-1.688,3.065-3.554,4.892-4.515l0.458-0.241l0.458,0.241c1.827,0.961,4.892,2.827,4.892,4.515
			c0,0.543-0.439,0.982-0.982,0.982c-0.543,0-0.982-0.439-0.982-0.982c-0.14-0.41-1.697-1.584-3.386-2.528
			C54.317,63.756,52.76,64.935,52.614,65.402z M66.84,78.556c-0.543,0-0.982-0.439-0.982-0.982c-0.14-0.41-1.697-1.584-3.386-2.528
			c-1.69,0.947-3.247,2.125-3.392,2.593c0,0.543-0.436,0.95-0.979,0.95c-0.542,0-0.978-0.472-0.978-1.015
			c0-1.688,3.065-3.554,4.892-4.515l0.458-0.241l0.458,0.241c1.827,0.961,4.892,2.827,4.892,4.515
			C67.822,78.116,67.383,78.556,66.84,78.556z M68.141,62.81c-1.69,0.947-3.247,2.125-3.392,2.593c0,0.543-0.436,0.95-0.979,0.95
			c-0.542,0-0.978-0.472-0.978-1.015c0-1.688,3.065-3.554,4.892-4.515l0.457-0.241l0.458,0.241c1.827,0.961,4.892,2.827,4.892,4.515
			c0,0.543-0.439,0.982-0.982,0.982c-0.543,0-0.982-0.439-0.982-0.982C71.386,64.928,69.83,63.755,68.141,62.81z M71.675,77.814
			c0,0.542-0.436,0.95-0.979,0.95c-0.542,0-0.978-0.471-0.978-1.014c0-1.689,3.065-3.554,4.892-4.515l0.458-0.241l0.458,0.241
			c1.827,0.961,4.892,2.826,4.892,4.515c0,0.543-0.439,0.982-0.982,0.982s-0.982-0.439-0.982-0.982
			c-0.14-0.41-1.696-1.584-3.386-2.528C73.377,76.168,71.821,77.347,71.675,77.814z"/>
	</g>
	<g>
		<path class="st6" d="M66.545,93.564H45.347c-0.948,0-1.719,0.771-1.719,1.719v12.281c0.666,0.16,1.335,0.314,2.011,0.449
			c-0.142-0.688-0.217-1.401-0.217-2.13c0-5.804,4.721-10.524,10.524-10.524c5.804,0,10.524,4.721,10.524,10.524
			c0,0.737-0.078,1.456-0.223,2.151c0.678-0.133,1.348-0.285,2.016-0.444V95.283C68.263,94.335,67.492,93.564,66.545,93.564z"/>
	</g>
	<g>
		<path class="st6" d="M64.123,108.413c0.248-0.8,0.383-1.65,0.383-2.531c0-4.72-3.84-8.56-8.56-8.56s-8.559,3.84-8.559,8.56
			c0,0.874,0.133,1.716,0.377,2.511c2.685,0.421,5.435,0.643,8.237,0.643C58.762,109.036,61.474,108.822,64.123,108.413z"/>
	</g>
	<g>
		<path class="st6" d="M35.809,104.035V92.082c-0.208-0.882-3.285-4.845-4.414-5.69c-1.129,0.845-4.206,4.813-4.421,5.771
			l0.005,8.195c2.584,1.696,5.319,3.179,8.189,4.409C35.56,104.581,35.809,104.3,35.809,104.035z"/>
	</g>
	<g>
		<path class="st6" d="M80.701,86.392c-1.129,0.845-4.206,4.813-4.421,5.771l0.007,11.872c0,0.255,0.23,0.523,0.596,0.709
			c2.885-1.241,5.636-2.735,8.232-4.446v-8.215C84.907,91.2,81.83,87.237,80.701,86.392z"/>
	</g>
	<g>
		<path class="st6" d="M16.966,69.677c0.543,0,0.982,0.439,0.982,0.982v18.162l6.467-11.519c-0.003-0.029-0.017-0.053-0.017-0.083
			V55.631c0-0.543,0.439-0.982,0.982-0.982s0.982,0.439,0.982,0.982v18.202l7.027-12.517c0-0.007-0.004-0.014-0.004-0.021V39.707
			c0-0.543,0.439-0.982,0.982-0.982c0.543,0,0.982,0.439,0.982,0.982v18.118l6.654-11.852c-0.002-0.024-0.014-0.044-0.014-0.069
			V24.315c0-0.543,0.439-0.982,0.982-0.982c0.543,0,0.982,0.439,0.982,0.982v18.184l5.786-10.307
			c-0.004-0.036-0.021-0.067-0.021-0.104V10.5c0-0.543,0.439-0.982,0.982-0.982c0.543,0,0.982,0.439,0.982,0.982v18.231l3.294-5.867
			c0.199-0.356,0.587-0.539,0.968-0.496c0.381-0.044,0.771,0.138,0.971,0.495l3.293,5.865V10.499c0-0.543,0.439-0.982,0.982-0.982
			s0.982,0.439,0.982,0.982v21.588c0,0.037-0.017,0.068-0.021,0.103l5.786,10.307V24.314c0-0.543,0.439-0.982,0.982-0.982
			c0.543,0,0.982,0.439,0.982,0.982v21.589c0,0.024-0.012,0.044-0.014,0.068l6.655,11.854V39.706c0-0.543,0.439-0.982,0.982-0.982
			s0.982,0.439,0.982,0.982v21.588c0,0.008-0.004,0.014-0.004,0.022l7.026,12.515V55.63c0-0.543,0.439-0.982,0.982-0.982
			s0.982,0.439,0.982,0.982v21.589c0,0.029-0.014,0.054-0.017,0.082l6.468,11.521V70.657c0-0.543,0.439-0.982,0.982-0.982
			c0.543,0,0.982,0.439,0.982,0.982v20.215c8.164-9.331,13.128-21.529,13.128-34.872c0-29.244-23.792-53.036-53.036-53.036
			S2.964,26.756,2.964,56c0,13.283,4.92,25.432,13.019,34.747V70.659C15.983,70.116,16.423,69.677,16.966,69.677z"/>
	</g>
	<g>
		<path d="M45.514,53.456c0.543,0,0.979-0.408,0.979-0.95c0.146-0.467,1.702-1.646,3.392-2.593c1.689,0.945,3.246,2.119,3.386,2.528
			c0,0.543,0.439,0.982,0.982,0.982c0.543,0,0.982-0.439,0.982-0.982c0-1.688-3.065-3.554-4.892-4.515l-0.458-0.241l-0.458,0.241
			c-1.827,0.961-4.892,2.827-4.892,4.515C44.536,52.985,44.972,53.456,45.514,53.456z"/>
	</g>
	<g>
		<path d="M47.137,65.337c0,0.543,0.439,0.982,0.982,0.982c0.543,0,0.982-0.439,0.982-0.982c0-1.689-3.066-3.554-4.893-4.515
			l-0.458-0.241l-0.458,0.241c-1.827,0.961-4.892,2.827-4.892,4.515c0,0.543,0.436,1.015,0.978,1.015
			c0.543,0,0.979-0.408,0.979-0.95c0.146-0.467,1.702-1.646,3.392-2.593C45.44,63.755,46.998,64.929,47.137,65.337z"/>
	</g>
	<g>
		<path d="M37.738,73.059l-0.458-0.241l-0.458,0.241c-1.827,0.961-4.892,2.827-4.892,4.515c0,0.543,0.436,1.015,0.978,1.015
			c0.543,0,0.979-0.408,0.979-0.95c0.146-0.467,1.702-1.646,3.392-2.593c1.689,0.945,3.246,2.119,3.386,2.528
			c0,0.543,0.439,0.982,0.982,0.982c0.543,0,0.982-0.439,0.982-0.982C42.631,75.886,39.565,74.02,37.738,73.059z"/>
	</g>
	<g>
		<path d="M50.333,73.059l-0.458-0.241l-0.458,0.241c-1.827,0.961-4.892,2.827-4.892,4.515c0,0.543,0.436,1.015,0.978,1.015
			c0.543,0,0.979-0.408,0.979-0.95c0.146-0.467,1.702-1.646,3.392-2.593c1.689,0.945,3.246,2.119,3.386,2.528
			c0,0.543,0.439,0.982,0.982,0.982c0.543,0,0.982-0.439,0.982-0.982C55.226,75.886,52.161,74.02,50.333,73.059z"/>
	</g>
	<g>
		<path d="M62.93,73.059l-0.458-0.241l-0.458,0.241c-1.827,0.961-4.892,2.827-4.892,4.515c0,0.543,0.436,1.015,0.978,1.015
			c0.543,0,0.979-0.408,0.979-0.95c0.146-0.467,1.702-1.646,3.392-2.593c1.689,0.945,3.246,2.119,3.386,2.528
			c0,0.543,0.439,0.982,0.982,0.982s0.982-0.439,0.982-0.982C67.822,75.886,64.757,74.02,62.93,73.059z"/>
	</g>
	<g>
		<path d="M78.453,77.75c0,0.543,0.439,0.982,0.982,0.982s0.982-0.439,0.982-0.982c0-1.689-3.065-3.554-4.892-4.515l-0.458-0.241
			l-0.458,0.241c-1.827,0.961-4.892,2.826-4.892,4.515c0,0.543,0.436,1.014,0.978,1.014c0.543,0,0.979-0.408,0.979-0.95
			c0.146-0.467,1.702-1.646,3.392-2.593C76.757,76.167,78.313,77.341,78.453,77.75z"/>
	</g>
	<g>
		<path d="M59.392,65.338c0,0.543,0.439,0.982,0.982,0.982c0.543,0,0.982-0.439,0.982-0.982c0-1.688-3.065-3.554-4.892-4.515
			l-0.458-0.241l-0.458,0.241c-1.827,0.961-4.892,2.827-4.892,4.515c0,0.543,0.436,1.015,0.978,1.015
			c0.543,0,0.979-0.408,0.979-0.95c0.146-0.467,1.702-1.646,3.392-2.593C57.696,63.755,59.252,64.928,59.392,65.338z"/>
	</g>
	<g>
		<path d="M71.526,65.338c0,0.543,0.439,0.982,0.982,0.982c0.543,0,0.982-0.439,0.982-0.982c0-1.688-3.065-3.554-4.892-4.515
			l-0.458-0.241l-0.457,0.241c-1.827,0.961-4.892,2.827-4.892,4.515c0,0.543,0.436,1.015,0.978,1.015
			c0.543,0,0.979-0.408,0.979-0.95c0.146-0.467,1.702-1.646,3.392-2.593C69.83,63.755,71.386,64.928,71.526,65.338z"/>
	</g>
	<g>
		<path d="M58.026,53.633c0.543,0,0.979-0.408,0.979-0.95c0.146-0.467,1.702-1.646,3.392-2.593c1.689,0.945,3.246,2.119,3.386,2.528
			c0,0.543,0.439,0.982,0.982,0.982s0.982-0.439,0.982-0.982c0-1.688-3.065-3.554-4.892-4.515l-0.458-0.241l-0.458,0.241
			c-1.827,0.961-4.892,2.827-4.892,4.515C57.047,53.161,57.484,53.633,58.026,53.633z"/>
	</g>
	<g>
		<path class="st7" d="M9.172,84.807c0.1,0.161,0.206,0.318,0.307,0.479C9.424,85.094,9.32,84.931,9.172,84.807z"/>
	</g>
	<g>
		<path class="st7" d="M102.361,85.534c0.183-0.287,0.373-0.569,0.551-0.859C102.592,84.833,102.368,85.154,102.361,85.534z"/>
	</g>
	<g>
		<path d="M56,1C25.673,1,1,25.673,1,56c0,10.556,2.995,20.423,8.172,28.807c0.149,0.124,0.252,0.287,0.307,0.479
			c1.774,2.809,3.788,5.45,6.026,7.886c0.463,0.504,0.936,1,1.418,1.487c2.473,2.5,5.183,4.763,8.093,6.755
			c0.644,0.441,1.3,0.864,1.964,1.278c1.31,0.817,2.659,1.576,4.039,2.283c1.319,0.676,2.665,1.305,4.043,1.874
			c0.185,0.076,0.373,0.146,0.559,0.221c1.896,0.76,3.843,1.417,5.836,1.964c0.069,0.019,0.138,0.04,0.207,0.059
			c0.65,0.176,1.305,0.335,1.964,0.487c0.891,0.206,1.79,0.389,2.697,0.551c0.804,0.143,1.613,0.269,2.429,0.377
			C51.127,110.822,53.543,111,56,111c2.417,0,4.792-0.173,7.128-0.477c0.815-0.106,1.624-0.229,2.428-0.371
			c0.911-0.16,1.813-0.343,2.707-0.547c0.659-0.151,1.315-0.307,1.964-0.481c0.106-0.028,0.21-0.061,0.316-0.09
			c1.993-0.547,3.94-1.205,5.836-1.964c0.198-0.079,0.399-0.154,0.595-0.235c1.365-0.565,2.698-1.19,4.006-1.859
			c1.414-0.724,2.794-1.505,4.134-2.345c0.664-0.416,1.32-0.842,1.964-1.285c2.847-1.957,5.503-4.171,7.929-6.615
			c0.483-0.486,0.953-0.983,1.418-1.487c2.198-2.384,4.181-4.966,5.935-7.709c0.006-0.38,0.23-0.701,0.551-0.859
			C108.039,76.32,111,66.5,111,56C111,25.673,86.327,1,56,1z M35.809,104.035c0,0.265-0.248,0.547-0.641,0.732
			c-2.87-1.231-5.605-2.713-8.189-4.409l-0.005-8.195c0.215-0.958,3.292-4.926,4.421-5.771c1.129,0.845,4.206,4.808,4.414,5.69
			V104.035z M64.123,108.413c-2.649,0.409-5.361,0.622-8.123,0.622c-2.801,0-5.551-0.222-8.237-0.643
			c-0.244-0.794-0.377-1.637-0.377-2.511c0-4.72,3.839-8.56,8.559-8.56s8.56,3.84,8.56,8.56
			C64.506,106.763,64.371,107.613,64.123,108.413z M66.247,108.033c0.145-0.695,0.223-1.414,0.223-2.151
			c0-5.804-4.721-10.524-10.524-10.524c-5.803,0-10.524,4.721-10.524,10.524c0,0.73,0.075,1.442,0.217,2.13
			c-0.676-0.134-1.344-0.289-2.011-0.449V95.283c0-0.948,0.771-1.719,1.719-1.719h21.198c0.948,0,1.719,0.771,1.719,1.719v12.306
			C67.595,107.748,66.925,107.9,66.247,108.033z M85.115,100.297c-2.596,1.712-5.346,3.205-8.232,4.446
			c-0.366-0.185-0.596-0.454-0.596-0.709l-0.007-11.872c0.215-0.958,3.292-4.926,4.421-5.771c1.129,0.845,4.206,4.808,4.414,5.69
			V100.297z M87.079,98.936v-6.853c0-1.301-4.627-7.749-6.378-7.749c-1.751,0-6.378,6.448-6.378,7.749v11.953
			c0,0.566,0.199,1.084,0.53,1.526c-1.496,0.571-3.025,1.073-4.583,1.509c-0.014,0.004-0.028,0.008-0.043,0.012v-0.012V95.283
			c0-2.03-1.653-3.683-3.683-3.683H45.347c-2.03,0-3.683,1.653-3.683,3.683v11.768c0.022,0.006,0.044,0.013,0.066,0.019h-0.066
			v-0.019c-1.508-0.424-2.99-0.909-4.441-1.46c0.345-0.448,0.55-0.978,0.55-1.556V92.082c0-1.301-4.627-7.749-6.378-7.749
			s-6.378,6.448-6.378,7.749v6.922c-2.541-1.836-4.912-3.889-7.088-6.136L55.946,25.15l38.057,67.79
			C91.873,95.13,89.558,97.137,87.079,98.936z M95.908,90.872V70.657c0-0.543-0.439-0.982-0.982-0.982
			c-0.543,0-0.982,0.439-0.982,0.982v18.164l-6.468-11.521c0.002-0.029,0.017-0.053,0.017-0.082V55.63
			c0-0.543-0.439-0.982-0.982-0.982s-0.982,0.439-0.982,0.982v18.202l-7.026-12.515c0-0.008,0.004-0.014,0.004-0.022V39.706
			c0-0.543-0.439-0.982-0.982-0.982s-0.982,0.439-0.982,0.982v18.119l-6.655-11.854c0.002-0.024,0.014-0.044,0.014-0.068V24.314
			c0-0.543-0.439-0.982-0.982-0.982c-0.543,0-0.982,0.439-0.982,0.982v18.182L62.151,32.19c0.004-0.036,0.021-0.067,0.021-0.103
			V10.499c0-0.543-0.439-0.982-0.982-0.982s-0.982,0.439-0.982,0.982v18.229l-3.293-5.865c-0.2-0.356-0.59-0.539-0.971-0.495
			c-0.38-0.043-0.768,0.139-0.968,0.496l-3.294,5.867V10.5c0-0.543-0.439-0.982-0.982-0.982c-0.543,0-0.982,0.439-0.982,0.982
			v21.588c0,0.037,0.017,0.068,0.021,0.104l-5.786,10.307V24.315c0-0.543-0.439-0.982-0.982-0.982c-0.543,0-0.982,0.439-0.982,0.982
			v21.589c0,0.024,0.012,0.045,0.014,0.069l-6.654,11.852V39.707c0-0.543-0.439-0.982-0.982-0.982c-0.543,0-0.982,0.439-0.982,0.982
			v21.588c0,0.007,0.004,0.014,0.004,0.021l-7.027,12.517V55.631c0-0.543-0.439-0.982-0.982-0.982s-0.982,0.439-0.982,0.982V77.22
			c0,0.029,0.014,0.054,0.017,0.083l-6.467,11.519V70.659c0-0.543-0.439-0.982-0.982-0.982s-0.982,0.439-0.982,0.982v20.088
			C7.884,81.432,2.964,69.283,2.964,56C2.964,26.756,26.756,2.964,56,2.964S109.036,26.756,109.036,56
			C109.036,69.343,104.072,81.541,95.908,90.872z"/>
	</g>
</g>
</svg>
