<svg xmlns="http://www.w3.org/2000/svg" width="60" height="58.672" viewBox="0 0 60 58.672">
  <g id="be-footer" transform="translate(-1444.5 -2620)">
    <path id="Path_1115" data-name="Path 1115" d="M-9558.891,13430.188c-15.609,0-24.555,19.766-22.3,36.578,2.258,16.828,15.313,22.094,30.914,22.094s30.773-11.766,28.516-28.578S-9543.289,13430.188-9558.891,13430.188Z" transform="translate(11026.033 -10810.188)" fill="#333"/>
    <g id="_34364" data-name="34364" transform="translate(1458.5 2558.753)">
      <path id="Behance" d="M29.028,84.077H20.974v-2h8.055v2Zm-13.416,8.2a5.289,5.289,0,0,1,.779,2.93A5.835,5.835,0,0,1,15.5,98.4a5.533,5.533,0,0,1-1.415,1.571,5.467,5.467,0,0,1-2.257,1,13.954,13.954,0,0,1-2.824.27H0v-20H9.659c2.435.04,4.161.745,5.18,2.13a5.089,5.089,0,0,1,.915,3.054,4.452,4.452,0,0,1-.924,2.944,4.715,4.715,0,0,1-1.523,1.138A4.441,4.441,0,0,1,15.612,92.281Zm-11-3.149H8.845a4.01,4.01,0,0,0,2.114-.5,1.89,1.89,0,0,0,.811-1.758A1.79,1.79,0,0,0,10.7,85.033a7.555,7.555,0,0,0-2.361-.313H4.612Zm7.565,5.793a2.145,2.145,0,0,0-1.272-2.143,5.012,5.012,0,0,0-2-.339H4.612v5.33H8.839a4.7,4.7,0,0,0,2.025-.351A2.522,2.522,0,0,0,12.177,94.925Zm19.838-3.254a18.813,18.813,0,0,1,.123,2.845H21.709a3.424,3.424,0,0,0,1.5,3.023,3.771,3.771,0,0,0,2.065.538,2.909,2.909,0,0,0,2.848-1.64h3.823a4.656,4.656,0,0,1-1.388,2.589,6.959,6.959,0,0,1-5.388,2.092,7.819,7.819,0,0,1-5.047-1.763q-2.181-1.767-2.184-5.739A7.757,7.757,0,0,1,19.906,87.9a6.909,6.909,0,0,1,5.125-1.987,8.168,8.168,0,0,1,3.369.67,5.8,5.8,0,0,1,2.473,2.121A7.071,7.071,0,0,1,32.016,91.671Zm-3.763.373a3.128,3.128,0,0,0-1-2.264A3.265,3.265,0,0,0,25.032,89a2.97,2.97,0,0,0-2.235.822,3.861,3.861,0,0,0-1,2.218h6.454Z" fill="#fff"/>
    </g>
  </g>
</svg>
