<svg xmlns="http://www.w3.org/2000/svg" width="2510.165" height="1743.005" viewBox="0 0 2510.165 1743.005">
  <g id="estimate-bg" transform="translate(570.165 219.523)">
    <circle id="Ellipse_656" data-name="Ellipse 656" cx="20" cy="20" r="20" transform="translate(258 615)" fill="#0131ff"/>
    <circle id="Ellipse_657" data-name="Ellipse 657" cx="20" cy="20" r="20" transform="translate(1900 291)" fill="#333"/>
    <path id="Path_974" data-name="Path 974" d="M-4035,7610.453c-25.483.8-192.5-15.662-400,149.917s-278.509,297.2-430,512.4-138,292.331,0,488.574,212.839,74.185,430,103.876,246.337,73.673,400-116.359,160.987-482.829,214.65-643.771" transform="matrix(-0.469, -0.883, 0.883, -0.469, -9081.938, 583.054)" fill="none" stroke="#f2f2f2" stroke-width="2"/>
    <path id="Path_971" data-name="Path 971" d="M-4029,5837.6s-339.9-149.6-650.9-34.587-281.188,267.822-108.688,524.078S-4756,6670.871-4445,6754.619s416-121.972,416-121.972Z" transform="translate(5949 -5388)" fill="none" stroke="#f2f2f2" stroke-width="2"/>
    <path id="Path_972" data-name="Path 972" d="M-4352.807,6115.9c-103.5,29.949-141.324-115.1-214.193-68.03s57.741,81.859,81.684,215.541-115.846,305.817,14.087,319.188,171.366-108.772,246.924-246.349,75.979-216.027,55.306-303.956S-4249.307,6085.95-4352.807,6115.9Z" transform="translate(5949 -5389)" fill="none" stroke="#f2f2f2" stroke-width="2"/>
    <path id="Path_973" data-name="Path 973" d="M-5809,6621.309c-14.557,129.846,108.937,79.225,214.814,159.88s318.98,200.366,400.393,77.65c45.51-68.6-22.05-195.3-63.208-254.938-32.288-46.788-149.537-33.093-179.021-105.823-66.856-164.919-192.752-114.3-192.752-114.3S-5794.443,6491.463-5809,6621.309Z" transform="translate(5949 -5389)" fill="none" stroke="#f2f2f2" stroke-width="2"/>
  </g>
</svg>
