<svg id="Warstwa_1" data-name="Warstwa 1" xmlns="http://www.w3.org/2000/svg" viewBox="0 0 200 100"><defs><style>.cls-1{fill:#50ae36;}</style></defs><title>loga-nastrone25wat</title><g id="foodito"><path class="cls-1" d="M24.07,41.89H8.67v6.73H21.53v6.52H8.67v9.53H1.6V35.33H24.07Z"/><path class="cls-1" d="M55.84,50A15.15,15.15,0,1,1,40.7,34.82,15.2,15.2,0,0,1,55.84,50ZM32,50a8.63,8.63,0,1,0,8.67-8.59A8.63,8.63,0,0,0,32,50Z"/><path class="cls-1" d="M88.9,50A15.14,15.14,0,1,1,73.76,34.82,15.2,15.2,0,0,1,88.9,50ZM65.09,50a8.63,8.63,0,1,0,8.67-8.59A8.63,8.63,0,0,0,65.09,50Z"/><path class="cls-1" d="M122.05,50c0,8.55-6.34,14.71-15.48,14.71h-13V35.37l13,0C116.23,35.29,122.05,41.5,122.05,50Zm-21.39,8.16h5.91c4.91,0,8.32-3.24,8.32-8.16,0-5.26-3.32-8.06-8.32-8.06h-5.91V58.11Z"/><path class="cls-1" d="M134.1,64.67H127V35.33h7.07Z"/><path class="cls-1" d="M166.9,41.89H156.5V64.67h-7.16V41.89H139V35.33h28Z"/><path class="cls-1" d="M198.4,50a15.14,15.14,0,1,1-15.13-15.18A15.19,15.19,0,0,1,198.4,50Zm-23.81,0a8.63,8.63,0,1,0,8.67-8.59A8.63,8.63,0,0,0,174.59,50Z"/></g></svg>