<svg xmlns="http://www.w3.org/2000/svg" width="60" height="58.672" viewBox="0 0 60 58.672">
  <g id="in-footer" transform="translate(-1544.5 -2620)">
    <path id="Path_1116" data-name="Path 1116" d="M-9558.891,13430.188c-15.609,0-24.555,19.766-22.3,36.578,2.258,16.828,15.313,22.094,30.914,22.094s30.773-11.766,28.516-28.578S-9543.289,13430.188-9558.891,13430.188Z" transform="translate(11126.033 -10810.188)" fill="#333"/>
    <g id="_34227" data-name="34227" transform="translate(1564.5 2630.442)">
      <path id="LinkedIn" d="M20.93,21.82v7.738H16.444v-7.22c0-1.814-.649-3.051-2.273-3.051a2.455,2.455,0,0,0-2.3,1.641,3.07,3.07,0,0,0-.149,1.094v7.536H7.233s.06-12.228,0-13.495h4.487v1.913c-.009.014-.021.03-.029.044h.029v-.044a4.455,4.455,0,0,1,4.044-2.23C18.717,15.746,20.93,17.675,20.93,21.82ZM2.539,9.558a2.338,2.338,0,1,0-.06,4.664h.03a2.339,2.339,0,1,0,.03-4.664Zm-2.273,20H4.752V16.063H.267Z" transform="translate(0 0)" fill="#fff"/>
    </g>
  </g>
</svg>
