<svg xmlns="http://www.w3.org/2000/svg" width="60" height="58.672" viewBox="0 0 60 58.672">
  <g id="insta-footer" transform="translate(-1684 -7325.5)">
    <path id="Path_6750" data-name="Path 6750" d="M-9558.891,13430.188c-15.609,0-24.555,19.766-22.3,36.578,2.258,16.828,15.313,22.094,30.914,22.094s30.773-11.766,28.516-28.578S-9543.289,13430.188-9558.891,13430.188Z" transform="translate(11265.533 -6104.688)" fill="#333"/>
    <g id="instagram-logo" transform="translate(1699.163 7343.163)">
      <path id="Path_6751" data-name="Path 6751" d="M19.358,0H7.378A7.387,7.387,0,0,0,0,7.378v11.98a7.387,7.387,0,0,0,7.378,7.378h11.98a7.387,7.387,0,0,0,7.379-7.378V7.378A7.387,7.387,0,0,0,19.358,0Zm5.006,19.358a5.012,5.012,0,0,1-5.006,5.006H7.378a5.012,5.012,0,0,1-5.006-5.006V7.378A5.012,5.012,0,0,1,7.378,2.372h11.98a5.012,5.012,0,0,1,5.006,5.006v11.98Z" fill="#fff"/>
      <path id="Path_6752" data-name="Path 6752" d="M47.857,40.97a6.889,6.889,0,1,0,6.889,6.889A6.9,6.9,0,0,0,47.857,40.97Zm0,11.406a4.517,4.517,0,1,1,4.517-4.517A4.522,4.522,0,0,1,47.857,52.376Z" transform="translate(-34.489 -34.491)" fill="#fff"/>
      <path id="Path_6753" data-name="Path 6753" d="M120.661,28.251a1.739,1.739,0,1,0,1.23.509A1.746,1.746,0,0,0,120.661,28.251Z" transform="translate(-100.114 -23.783)" fill="#fff"/>
    </g>
  </g>
</svg>
