<svg id="kko-item-1" xmlns="http://www.w3.org/2000/svg" width="225.519" height="501.327" viewBox="0 0 225.519 501.327">
  <g id="Group_3449" data-name="Group 3449" transform="translate(165.346 72.645)">
    <g id="Group_3448" data-name="Group 3448">
      <g id="Group_3447" data-name="Group 3447">
        <path id="Path_5570" data-name="Path 5570" d="M241.186,258.2c-13.552,0-30.086,11.108-30.086,29.53,0,27.633,30.086,57.7,30.086,57.7s30.086-29.8,30.086-57.7C271.273,269.308,255.552,258.2,241.186,258.2Zm-.271,46.868a17.339,17.339,0,1,1,17.347-17.339A17.464,17.464,0,0,1,240.915,305.068Z" transform="translate(-211.1 -258.2)" fill="#333" fill-rule="evenodd"/>
      </g>
    </g>
  </g>
  <g id="Group_3450" data-name="Group 3450" transform="translate(85.983 100.444)">
    <path id="Path_5571" data-name="Path 5571" d="M218.005,317.255A27.847,27.847,0,0,1,211.5,315.9c2.168,1.355,1.084,2.438,3.253,4.064,1.084.271,5.421-.271,5.421-1.355C220.445,316.984,219.089,317.255,218.005,317.255Z" transform="translate(-131.053 -187.381)" fill="#fcd2c5"/>
    <path id="Path_5572" data-name="Path 5572" d="M229.855,326.878c-.271-.271-5.15-5.147-7.589-7.044a51.015,51.015,0,0,0-6.234-4.335s-6.505,5.147-8.131,7.315c3.253,2.709,14.366,10.295,14.637,10.566,3.795,3.793,5.963,3.522,5.963,1.9,0-.271,3.253,1.355,3.795,0a1.79,1.79,0,0,0,1.9-.813,7.726,7.726,0,0,0,0-3.522C233.65,330.4,230.939,327.962,229.855,326.878Z" transform="translate(-137.211 -188.065)" fill="#fcd2c5"/>
    <path id="Path_5573" data-name="Path 5573" d="M214.343,269.108c-.271-2.167-24.936,1.625-28.731,3.793-8.673,5.147,4.337,57.434,12.2,75.043,2.982,6.773,19.787,13.275,17.347-9.753C213.259,319.5,216.24,280.758,214.343,269.108Z" transform="translate(-180.245 -268.461)" fill="#fcd2c5"/>
    <path id="Path_5574" data-name="Path 5574" d="M186.916,272.9c-5.963,3.251-7.047,28.717-1.355,49.848,2.439,0,10.029-1.084,12.468-1.355a131.4,131.4,0,0,0,20.6-3.793c-1.9-18.422-1.355-40.366-2.982-48.494C215.376,266.941,190.711,270.734,186.916,272.9Z" transform="translate(-181.82 -268.461)" fill="#febb00"/>
    <path id="Path_5575" data-name="Path 5575" d="M202.753,296.158a4.86,4.86,0,0,0-1.9-1.354c-3.524-1.9-9.758-2.167-12.739,5.689-3.253,8.4,37.4,47.41,55.294,60.956a46.8,46.8,0,0,1,7.318-8.127C239.887,345.194,211.969,305.369,202.753,296.158Z" transform="translate(-171.365 -225.344)" fill="#fcd2c5"/>
  </g>
  <path id="Path_5580" data-name="Path 5580" d="M172.309,349.4c-.542,7.315,13.823,168.509,13.823,168.509,0,.271,6.234.813,10.029-2.167,0,0,8.945-157.943,9.216-161.194C202.667,356.986,176.375,352.651,172.309,349.4Z" transform="translate(-112.13 -29.68)" fill="#fcd2c5"/>
  <path id="Path_5576" data-name="Path 5576" d="M155.009,349.4c-.542,7.315,13.824,168.509,13.824,168.509,0,.271,6.234.813,10.029-2.167,0,0,8.945-157.943,9.216-161.194C185.367,356.986,159.075,352.651,155.009,349.4Z" transform="translate(-141.721 -29.68)" fill="#fcd2c5"/>
  <path id="Path_5577" data-name="Path 5577" d="M172.385,413.435c-1.355-1.626-3.253-4.335-3.253-4.335l-8.4,4.606s-.813.813-.271,3.522a7.952,7.952,0,0,0,.271,5.689c.813,1.625,6.234,2.98,8.945,4.605,2.168,1.355,5.963,1.626,10.029,1.355s9.216-2.438,9.216-4.876C188.919,419.124,175.1,416.686,172.385,413.435Z" transform="translate(-133.077 72.356)" fill="#333"/>
  <path id="Path_5583" data-name="Path 5583" d="M168.6,311.535v53.1c4.066,3.251,2.982,50.661,10.029,100.78,8.4,57.976,12.739,119.745,12.739,119.745,4.066,4.606,12.468,0,12.468-.271,0,0,23.039-266.851,21.413-277.688C218.473,309.909,188.929,312.889,168.6,311.535Z" transform="translate(-118.45 -101.806)" fill="#fa6c51"/>
  <path id="Path_5578" data-name="Path 5578" d="M159.9,412.964s.271,1.9.542,4.606c0,0,5.15,1.9,7.047.813a14.848,14.848,0,0,0,4.879-4.606,19.966,19.966,0,0,1-2.982-4.876Z" transform="translate(-133.331 72.014)" fill="#fcd2c5"/>
  <path id="Path_5579" data-name="Path 5579" d="M151.3,311.535v53.1c4.066,3.251,2.982,50.661,10.029,100.78,8.4,57.976,12.739,119.745,12.739,119.745,4.066,4.606,12.468,0,12.468-.271,0,0,23.039-266.851,21.413-277.688C201.173,309.909,171.629,312.889,151.3,311.535Z" transform="translate(-148.041 -101.806)" fill="#fb836f"/>
  <path id="Path_5581" data-name="Path 5581" d="M189.685,413.435c-1.355-1.626-3.253-4.335-3.253-4.335l-8.4,4.606s-.813.813-.271,3.522a7.952,7.952,0,0,0,.271,5.689c.813,1.625,6.505,3.793,8.945,4.605A26.367,26.367,0,0,0,197,428.877c4.066-.271,9.216-2.438,9.216-4.876C206.219,419.124,192.4,416.686,189.685,413.435Z" transform="translate(-103.485 72.356)" fill="#333"/>
  <path id="Path_5582" data-name="Path 5582" d="M177.2,412.964s.271,1.9.542,4.606c0,0,5.15,1.9,7.047.813a14.848,14.848,0,0,0,4.879-4.606,19.969,19.969,0,0,1-2.981-4.876Z" transform="translate(-103.739 72.014)" fill="#fcd2c5"/>
  <path id="Path_5584" data-name="Path 5584" d="M150.1,326.053c.271,4.335,19.516,15.984,73.454,14.088,20.329-.813,24.123,12.191,31.984,7.044,3.524-2.167,3.524-28.446,3.524-28.446L157.965,301.4S149.833,321.719,150.1,326.053Z" transform="translate(-150.098 -111.719)" fill="#febb00"/>
  <path id="Path_5585" data-name="Path 5585" d="M259.4,274.213c-2.439-1.9-16.534-8.4-16.534-8.4s-4.066,4.064-8.131,2.98c-5.963-1.355-13.823-10.295-13.823-10.295s-13.281,1.084-17.618,2.167c-17.076,4.335-24.665,28.446-27.1,39.554-.813,4.064-26.021,73.96-24.123,79.378,4.879,13.546,96.764,33.052,104.9,22.486,3.253-4.335,10.029-92.653,10.3-101.322C267.531,291.823,268.886,281.8,259.4,274.213Z" transform="translate(-146.908 -185.042)" fill="#febb00"/>
  <path id="Path_5586" data-name="Path 5586" d="M183.434,249.6c0,5.689-3.795,21.131-6.234,23.841,3.253,10.837,20.058,13.275,22.226,7.315-1.9-7.044,2.711-18.693,2.982-19.777C198.342,260.978,184.789,250.955,183.434,249.6Z" transform="translate(-103.739 -200.253)" fill="#fcd2c5"/>
  <path id="Path_5587" data-name="Path 5587" d="M195.965,243.02c-8.4-.542-14.366,5.96-14.908,14.088l-.542,8.4c-.542,6.231,8.4,16.526,13.823,15.984,13.01-1.9,17.347-24.924,17.076-27.633C210.872,246.271,203.825,243.562,195.965,243.02Z" transform="translate(-98.11 -211.554)" fill="#fcd2c5"/>
  <path id="Path_5588" data-name="Path 5588" d="M214.971,248.254c-.542-4.064-13.281-15.713-28.46-4.606-22.226,16.526-1.626,33.323-1.626,33.323-.542-5.689,8.674-26.008,26.563-23.3,0,0,8.945,5.96,4.066,19.777C222.29,271.282,227.982,252.589,214.971,248.254Z" transform="translate(-105.461 -218.413)" fill="#3387ff"/>
  <path id="Path_5589" data-name="Path 5589" d="M180.95,256.891c-5.963,14.629-9.758,14.9-15.721,18.151-28.731,16.526,1.084,62.852,8.673,48.494,2.982-5.689-12.2-15.984,12.468-22.757,27.376-7.315,20.057-20.861,20.329-29.8.271-33.323,14.637-23.028,17.347-15.984,1.626,4.335,5.421,2.709,6.776-.271C235.7,241.991,200.195,208.127,180.95,256.891Z" transform="translate(-145.165 -231.385)" fill="#3387ff"/>
  <path id="Path_5590" data-name="Path 5590" d="M186.219,238.912a4.7,4.7,0,0,0-3.253.271c-4.337,1.9-4.879,4.606-4.066,7.586,0,0,5.15-4.335,10.842-5.418C190.014,241.35,188.658,239.454,186.219,238.912Z" transform="translate(-101.374 -218.824)" fill="#333"/>
  <g id="Group_3452" data-name="Group 3452" transform="translate(39.677 83.149)">
    <g id="Group_3451" data-name="Group 3451">
      <path id="Path_5591" data-name="Path 5591" d="M223.263,286.334a18.509,18.509,0,0,1-5.963,2.438c2.439-.271,2.439,1.354,4.879,1.354,1.084-.271,4.337-3.251,3.795-4.335C225.16,284.709,224.076,285.793,223.263,286.334Z" transform="translate(-74.826 -222.336)" fill="#fcd2c5"/>
      <path id="Path_5592" data-name="Path 5592" d="M241.721,289.266c-1.084-.542-4.337-.813-5.692-1.084-.542,0-7.318-1.355-10.3-1.355a35.538,35.538,0,0,0-7.589,0c-.271,0-2.439,8.127-2.439,10.566,4.337.271,17.618.271,17.889.271,5.15,1.084,6.776-.542,5.963-1.625-.271-.271,3.524-.813,2.982-2.167a2,2,0,0,0,1.084-1.626A4.792,4.792,0,0,0,241.721,289.266Z" transform="translate(-77.563 -220.121)" fill="#fcd2c5"/>
      <path id="Path_5593" data-name="Path 5593" d="M175.541,264.581c-3.524,2.438-14.366,20.861-6.776,25.466,10.3,5.96,34.965,22.486,52.583,29.53,21.413,8.94,21.684-6.5,16.263-11.378C223.788,294.924,183.944,258.892,175.541,264.581Z" transform="translate(-162.357 -258.83)" fill="#fcd2c5"/>
      <path id="Path_5594" data-name="Path 5594" d="M180.359,262.139c-11.384,2.167-21.684,16.8-11.384,30.072,5.15,6.773,17.347,16.255,32.255,23.028A127.074,127.074,0,0,0,215.325,299.8c1.626-1.9,6.505-7.857,7.86-9.753C208.548,274.33,187.136,261.056,180.359,262.139Z" transform="translate(-164.736 -262.077)" fill="#febb00"/>
      <path id="Path_5595" data-name="Path 5595" d="M187.832,292.715c4.066,7.586,56.649,15.984,79.146,17.068a64.9,64.9,0,0,1,1.355-10.837c-13.552-.271-59.359-17.339-72.1-19.506C190.271,278.628,184.037,285.672,187.832,292.715Z" transform="translate(-127.214 -232.51)" fill="#fcd2c5"/>
    </g>
  </g>
  <path id="Path_5600" data-name="Path 5600" d="M179.216,251.235c-.271,1.9,1.626,5.418,3.253,6.231a69.562,69.562,0,0,0,4.879-8.94A5.245,5.245,0,0,0,184.1,246.9C182.2,246.9,179.488,249.338,179.216,251.235Z" transform="translate(-100.335 -204.868)" fill="#fcd2c5"/>
</svg>
