<svg xmlns="http://www.w3.org/2000/svg" xmlns:xlink="http://www.w3.org/1999/xlink" width="520.521" height="531.744" viewBox="0 0 520.521 531.744">
  <defs>
    <filter id="Path_5566" x="0" y="1.45" width="520.521" height="530.294" filterUnits="userSpaceOnUse">
      <feOffset dy="40" input="SourceAlpha"/>
      <feGaussianBlur stdDeviation="10" result="blur"/>
      <feFlood flood-color="#e6e6e6" flood-opacity="0.22"/>
      <feComposite operator="in" in2="blur"/>
      <feComposite in="SourceGraphic"/>
    </filter>
  </defs>
  <g id="kko-item-2" transform="translate(-9634.821 -4498.613)">
    <g transform="matrix(1, 0, 0, 1, 9634.82, 4498.61)" filter="url(#Path_5566)">
      <path id="Path_5566-2" data-name="Path 5566" d="M427.879,246.266h-.811c-127.1,4.328-226.609,110.893-222.282,237.743,4.327,127.121,110.871,226.383,237.966,222.326h.811c126.825-4.868,225.8-110.893,221.471-237.743S554.7,242.48,427.879,246.266Z" transform="translate(-174.65 -244.71)" fill="#4cbc1d"/>
    </g>
    <path id="Union_4" data-name="Union 4" d="M169.68,452.935c10.587-1.63,17.376-5.974,21.993-11.677a27.914,27.914,0,0,0,3.8-5.974c-1.084-10.039-5.429-19.815-10.045-29.313-1.623-2.99-3.256-6.244-4.608-9.235-11.676-19.274-11.4-31.484-4.617-40.178a32.671,32.671,0,0,1,6.24-5.967,98.624,98.624,0,0,1,9.5-3.531c3.256-1.089,6.517-2.172,9.773-3.531a60.975,60.975,0,0,0,11.127-2.442c52.385-12.488,10.585-54.29,1.624-87.411-1.351-2.713-2.435-4.884-3.8-7.056-4.068-6.244-9.776-9.776-26.871-11.677a68.881,68.881,0,0,0-7.6-.271,41.151,41.151,0,0,1-11.946-1.623,39.611,39.611,0,0,1-9.773-4.073,36.8,36.8,0,0,0-6.782-11.136,32.071,32.071,0,0,0-7.6-6.244,33.486,33.486,0,0,0-8.413-3.795c-6.3-7.07-14.289-6.109-22.4-5.155-9.031,1.061-18.22,2.129-25.365-7.875a10.29,10.29,0,0,1,1.893-7.334c1.9-2.713,5.705-5.425,12.49-7.056,8.41-1.9,14.927-3.261,20.358-4.343,13.839-2.713,20.9-14.389,35.011-24.977a126.533,126.533,0,0,0,20.088-19c2.984-5.7,3.8-11.4,18.456-18.462,9.432-4.656,18.37-1.922,26.179.812,8.586,3,15.8,6.016,20.78-.812,2.714-3.795-1.361-10.039-2.984-13.57-3.528-7.056-4.345-14.39-8.957-20.9a8.156,8.156,0,0,0-4.894-3.795s-7.322-1.36-10.036-3.261a32.446,32.446,0,0,0-20.628-5.432c-.542,0-1.084.277-1.633.277-11.669,2.442-12.218,21.445-26.6,21.445-17.1,0-14.932-16.561-8.962-18.733,5.977-3.531,11.946-1.089,18.465-1.089,7.322,0,22.524-6.785,24.966-6.515,3.805.548,8.961,2.72,12.76,3.531L221.8,66.636c4.61,0,16.825-16.825,3.526-24.97-4.075-2.442-22.8-6.244-22.8-6.244-5.156-.271-10.585-13.3-16.283-12.218-4.345.812-11.406,11.128-33.66,12.218-1.384.071-5.2-.563-9.951-1.2-12.1-1.623-30.268-3.24-29.675,6.892,0,2.99-3.805,5.433-6.522,5.162-5.154-.541-9.494,0-14.379.271A228.877,228.877,0,0,1,222.886.129h.542c57-1.9,109.659,17.373,151.19,50.495A41.328,41.328,0,0,1,360.5,57.95c-1.624.548-3.256,2.172-2.977,4.073.8,8.416,16.276,9.776,11.127,27.419-2.172,7.334-13.848,9.227-21.172,11.406-3.533,1.082-7.6,2.442-8.689,6.515-1.9,7.326-8.413,11.67-10.315,12.481a16.932,16.932,0,0,0-3.8,1.9l-3.533,3.261a13.781,13.781,0,0,0-2.163,10.587c1.623,10.046,11.939,10.587,19.809,7.875,0,0,3.533-1.63,4.075-1.9.812-.278,1.082-.819,1.623-1.089a9.414,9.414,0,0,0,2.991-2.713l1.623-1.089,10.857-15.2s11.406-7.056,16.014.541a16.686,16.686,0,0,0,5.156,5.432c2.175,1.36,19.277,6.515,15.476,1.9-2.44-2.442-4.889-6.515,1.088-10.317,5.7-3.531,11.127,3.8,13.839,11.677,1.112,3.069,3.457,1.1,6.464-.854,2.834-1.844,6.259-3.7,9.822-1.317.819.541,2.984,8.957,3.533,9.5,3.526,5.7,6.512,5.155,13.841,2.983,1.9,4.343,3.526,8.964,5.156,13.578a10.919,10.919,0,0,0-4.073.812c-7.3,2.891-13.267.683-19.141-1.516-5.724-2.143-11.358-4.286-18.048-1.737-15.2,5.7-16.283-9.776-29.31-11.677-15.472-2.172-15.2,8.957-45.6,12.218-14.388,1.631-21.719,11.67-34.748,15.472-7.331,2.172-9.766,8.686-8.955,14.66-2.984,25.788-2.712,69.5,33.66,67.6,11.667-.548,44.515-8.964,50.755,2.713,9.5,18.184,12.757,36.646,14.93,57.009,1.084,10.039,12.218,36.917,12.218,36.917,2.977,8.416,4.61,31.492,5.97,33.393a229.064,229.064,0,0,1-167.2,81.167h-.549q-3.708.123-7.4.123A234.421,234.421,0,0,1,169.68,452.935ZM.131,239.017a231.622,231.622,0,0,1,15.449-91.043l.549.271s3.519.541,4.068,2.72l.27,1.082c.812,3.531,4.068,12.232,14.639,12.232,7.322,0,10.029,8.152,12.474,16.034,1.893,6.522,4.338,13.863,8.945,17.665,2.714,2.172,4.88,4.35,7.054,6.251a33.222,33.222,0,0,1,4.88,9.783,36.873,36.873,0,0,1,2.163,10.872c-1.351,2.991-2.707,5.981-3.8,8.964a95.162,95.162,0,0,0-5.15,12.5,49.534,49.534,0,0,0-2.438,11.962c-.547,3.8-.812,7.6-1.082,11.684,0,3.8,0,7.611.263,11.143a109.938,109.938,0,0,0,9.766,28.807c1.623,2.99-19.526,58.426-18.714,63.866A229.17,229.17,0,0,1,.131,239.017Z" transform="translate(9663.383 4498.613)" fill="#f2f7ff"/>
  </g>
</svg>
