<svg id="kko-item-3" xmlns="http://www.w3.org/2000/svg" width="425.265" height="50.444" viewBox="0 0 425.265 50.444">
  <path id="Path_5609" data-name="Path 5609" d="M839.205,212.9a24.972,24.972,0,0,0-19.305,9.648h38.886C854.1,217.035,847.2,212.9,839.205,212.9Z" transform="translate(-433.521 -172.104)" fill="#fff"/>
  <path id="Path_5610" data-name="Path 5610" d="M990.337,228.146c-8.273,0-14.617,9.923-22.063,7.994-16.271-3.859-23.166-24.808-41.093-24.808-13.789,0-21.787,17.09-34.749,15.988-20.132-1.93-29.509-29.219-51.3-29.219-20.132,0-30.061,23.43-48.814,25.36-11.031,1.1-19.029-11.853-30.888-11.853-22.615,0-24.545,8.821-45.229,15.436-6.067,1.93-10.48,13.507-17.1,13.507-8,0-14.893,2.481-19.305,7.994h344.183C1018.192,237.518,1005.229,228.146,990.337,228.146Z" transform="translate(-679.8 -198.1)" fill="#fff"/>
</svg>
