<svg id="kko-item-4" xmlns="http://www.w3.org/2000/svg" width="262.34" height="586.836" viewBox="0 0 262.34 586.836">
  <g id="Group_3637" data-name="Group 3637" transform="translate(0 0)">
    <path id="Path_5708" data-name="Path 5708" d="M620.239,216.269c-2.651-1.06-9.278-3.179-9.543-3.179-1.325-.265-4.506-1.59-5.566-1.59a4.607,4.607,0,0,0-2.916,1.59,1.638,1.638,0,0,0,.265,1.855c-1.06,1.06,2.121,3.179,1.59,3.179-1.325.795-.53,2.649,4.506,4.239.265,0,11.929,5.829,15.9,7.418,1.06-2.385,2.651-10.333,2.386-10.333C624.745,218.389,622.624,217.329,620.239,216.269Z" transform="translate(-592.266 -8.304)" fill="#fcd2c5"/>
    <path id="Path_5709" data-name="Path 5709" d="M704.461,206.413c-11.133,3.709-42.677,24.64-59.642,31.793-20.941,8.743-7.157,20.136,0,19.606,18.82-1.59,69.98-15.1,69.98-24.9C715.064,228.4,706.582,205.618,704.461,206.413Z" transform="translate(-539.974 -16.729)" fill="#fcd2c5"/>
    <path id="Path_5710" data-name="Path 5710" d="M687.038,229.5a15.657,15.657,0,0,0-2.121-1.06c-12.194-3.444-59.643-8.478-71.571-14.042a43.877,43.877,0,0,1-3.446,10.068c20.146,8.743,72.9,25.17,78.463,18.546C693.4,236.92,690.483,231.886,687.038,229.5Z" transform="translate(-579.276 -3.521)" fill="#fcd2c5"/>
    <path id="Path_5711" data-name="Path 5711" d="M745.759,204.74c-35.52,12.982-64.414,36.562-65.739,37.092-5.3-.795-12.459-1.855-19.881-2.914-16.435-2.385-36.581-5.034-43.738-8.213l-5.3,14.572c17.495,7.419,59.907,20.136,74.221,18.546,14.844-1.59,68.125-15.1,68.125-28.084C753.711,231.5,749.735,203.15,745.759,204.74Z" transform="translate(-577.296 -19.561)" fill="#2e79e6"/>
    <g id="Group_3660" data-name="Group 3660">
      <g id="Group_3577" data-name="Group 3577" transform="translate(7.02)">
        <path id="Path_5666" data-name="Path 5666" d="M599.066,299.963c-1.316,5.262.439,11.84-.438,17.541-1.316,7.017-5.7,8.771-8.775,13.156-3.51,5.263-5.265,14.91-3.949,23.242.877,5.262,2.632,9.648,3.949,14.033,1.316,4.824,2.194,10.525.877,15.349-1.755,7.455-10.53,13.156-10.53,44.73,0,28.5,20.621,39.906,26.325,46.923V289l-2.632,2.631A14.974,14.974,0,0,0,599.066,299.963Z" transform="translate(-580.2 -289)" fill="#4cbc1d"/>
        <path id="Path_5667" data-name="Path 5667" d="M602.872,367.935c1.316-4.824,3.071-9.209,3.949-14.033,1.316-8.332-.439-17.98-3.949-23.242-3.071-4.385-7.459-6.578-8.775-13.156-.877-5.7.878-11.84-.438-17.541-.878-3.947-3.072-6.14-4.826-8.332L586.2,289V474.937c5.7-7.016,26.325-17.98,26.325-46.923,0-31.574-9.214-37.275-10.53-44.73C600.679,378.46,601.556,372.759,602.872,367.935Z" transform="translate(-559.875 -289)" fill="#4cbc1d"/>
        <line id="Line_599" data-name="Line 599" y2="149.2" transform="translate(26.977 30.469)" fill="none" stroke="#01b85e" stroke-width="1"/>
      </g>
      <g id="Group_3578" data-name="Group 3578" transform="translate(33.886 119.28)">
        <path id="Path_5668" data-name="Path 5668" d="M612.107,318.831c-1.316,1.754-.878,4.385-1.755,6.139-1.316,2.193-4.826,2.193-7.459,3.07a7.67,7.67,0,0,0-4.826,7.894c0,2.193.878,3.947,1.316,6.139s.439,4.385-.878,5.7c-1.755,2.193-8.775,2.631-11.846,14.471-2.632,10.525,10.969,18.418,14.479,21.926l17.55-67.972-2.194.439C614.739,317.077,612.984,317.516,612.107,318.831Z" transform="translate(-586.323 -316.2)" fill="#febb00"/>
        <path id="Path_5669" data-name="Path 5669" d="M610.221,328.04c0-2.193,1.755-4.385,1.316-6.578a8.916,8.916,0,0,0-2.632-3.947L607.15,316.2,589.6,384.172c4.826-1.316,20.621-1.754,23.254-12.279,3.071-11.4-3.071-15.349-3.51-18.419-.439-2.193.877-3.947,2.193-5.262s3.071-2.631,3.949-4.385c1.755-2.631,1.316-6.578-.439-9.209C613.293,332.426,610.221,330.672,610.221,328.04Z" transform="translate(-575.224 -316.2)" fill="#febb00"/>
        <line id="Line_600" data-name="Line 600" x1="15.095" y2="48.616" transform="translate(15.206 10.096)" fill="none" stroke="#e6a900" stroke-width="1"/>
      </g>
      <path id="Path_5670" data-name="Path 5670" d="M578.6,330.3s12.724,13.595,12.724,22.8c0,2.631-.878,6.14-2.194,10.525-3.949,13.594,5.7,27.189,19.744,27.189h33.784c14.04,0,23.692-13.594,19.744-27.189-1.316-4.385-2.194-7.893-2.194-10.525,0-9.209,12.724-22.8,12.724-22.8Z" transform="translate(-578.6 -149.187)" fill="#333"/>
    </g>
  </g>
  <path id="Path_5712" data-name="Path 5712" d="M674.712,288.7c-1.06,7.154,2.916,165.326,2.916,165.326,0,.265,6.1,1.325,10.073-1.59,0,0,18.291-153.668,18.821-156.848C703.871,298.238,678.423,292.144,674.712,288.7Z" transform="translate(-472.584 119.034)" fill="#fcd2c5"/>
  <path id="Path_5713" data-name="Path 5713" d="M688.1,353.3c-1.326-1.855-2.916-4.5-2.916-4.5l-8.483,3.974s-.8.795-.53,3.444a7.111,7.111,0,0,0,0,5.564c.8,1.59,6.1,3.974,8.482,5.034a23.869,23.869,0,0,0,9.808,1.855c3.976,0,9.278-1.59,9.278-3.974C703.735,360.193,690.481,356.748,688.1,353.3Z" transform="translate(-470.858 218.166)" fill="#febb00"/>
  <g id="Group_3638" data-name="Group 3638" transform="translate(157.832 309.174)">
    <path id="Path_5714" data-name="Path 5714" d="M702.335,347.685c-1.59-2.12-2.651-2.384-2.651-2.384l-9.013,2.649a27.876,27.876,0,0,1,.8,5.3c.53,4.239-7.157,15.632-3.711,18.811,1.59,1.59,6.627-.53,9.543-3.179,2.916-2.914,5.3-5.564,5.831-7.948.8-3.179,3.446-7.683,2.916-9.273C705.516,348.744,702.335,347.685,702.335,347.685Z" transform="translate(-610.059 -96.781)" fill="#febb00"/>
    <path id="Path_5715" data-name="Path 5715" d="M688.1,348.609a16.29,16.29,0,0,1,1.325,5.564,13.677,13.677,0,0,0,6.627-.265c1.856-.53,4.241-5.564,4.241-5.564-1.591-2.12-2.651-3.444-2.651-3.444Z" transform="translate(-608.018 -97.441)" fill="#fcd2c5"/>
    <path id="Path_5716" data-name="Path 5716" d="M710.4,253.09c-19.881,2.384-45.858,1.06-52.485-1.59-.53,5.564,6.362,77.1,14.579,146.25,3.976,33.118,66,107.038,66,107.038,0,.53,7.157,1.325,10.868-3.444,0,0-42.147-83.988-41.087-105.183C710.933,348.47,716.235,287.8,710.4,253.09Z" transform="translate(-657.889 -251.5)" fill="#ffaf33"/>
  </g>
  <path id="Path_5717" data-name="Path 5717" d="M675.6,352.144s0,1.855.265,4.5c0,0,5.036,2.12,6.892,1.325a14.879,14.879,0,0,0,5.037-4.239,21.851,21.851,0,0,1-2.651-5.034Z" transform="translate(-470.821 218.001)" fill="#fcd2c5"/>
  <path id="Path_5718" data-name="Path 5718" d="M676.7,248.495s-6.362,101.474-2.386,150.754c4.506,57.228,4.771,117.636,4.771,117.636,3.711,4.769,11.929.795,12.194.53,0,0,41.617-259.117,40.822-269.714C725.739,250.084,696.581,251.144,676.7,248.495Z" transform="translate(-475.102 51.406)" fill="#ffca1b"/>
  <path id="Path_5719" data-name="Path 5719" d="M663.192,254.9,656.3,282.452c2.916,2.65,15.639,7.684,22.531,6.359,3.181-.53,11.663-18.546,11.663-18.546l6.1,18.281c25.978,6.094,67.33-5.034,67.33-5.034,0-18.281-1.856-39.212-1.856-39.212Z" transform="translate(-504.358 45.798)" fill="#333"/>
  <path id="Path_5720" data-name="Path 5720" d="M687.716,190.7c-1.326,1.06-15.374,9.538-19.616,9.008,0,1.06,3.181,12.982.8,19.606,1.325,6.094,18.025,5.3,22.267-5.034C689.306,211.631,687.186,196.264,687.716,190.7Z" transform="translate(-483.202 -42.613)" fill="#fcd2c5"/>
  <path id="Path_5721" data-name="Path 5721" d="M725.457,203.574c-4.241-.795-16.965-3.974-16.965-3.974s-8.748,8.213-14.579,8.743c-3.976.53-7.687-3.709-7.687-3.709s-14.579,5.034-16.965,6.624c-10.073,6.359-11.928,16.692-10.073,24.9,5.832,28.614-6.892,95.645,1.591,99.354,11.4,4.769,74.752,8.213,98.874-7.948a6.318,6.318,0,0,0,2.916-6.094c-1.326-14.837-6.892-69.416-14.314-93.261C744.543,217.616,738.446,206.224,725.457,203.574Z" transform="translate(-500.267 -27.933)" fill="#3387ff"/>
  <g id="Group_3639" data-name="Group 3639" transform="translate(78.685 142.557)">
    <path id="Path_5722" data-name="Path 5722" d="M646.239,216.269c-2.651-1.06-9.278-3.179-9.543-3.179-1.325-.265-4.506-1.59-5.566-1.59a4.607,4.607,0,0,0-2.916,1.59,1.638,1.638,0,0,0,.265,1.855c-1.06,1.06,2.12,3.179,1.59,3.179-1.325.795-.53,2.649,4.506,4.239.265,0,11.929,5.829,15.9,7.418,1.06-2.385,2.651-10.333,2.386-10.333C650.745,218.389,648.624,217.329,646.239,216.269Z" transform="translate(-628.031 -150.861)" fill="#fcd2c5"/>
    <path id="Path_5723" data-name="Path 5723" d="M730.461,206.413c-11.133,3.709-42.677,24.64-59.642,31.793-20.941,8.743-7.157,20.136,0,19.606,18.82-1.59,69.981-15.1,69.981-24.9C741.064,228.4,732.582,205.618,730.461,206.413Z" transform="translate(-575.739 -159.286)" fill="#fcd2c5"/>
    <path id="Path_6644" data-name="Path 6644" d="M682.548,215.6c-1.06-6.889-1.855-14.042,0-19.606,0-.265-10.073-11.393-13.784-5.829a42.493,42.493,0,0,0-1.59,23.315c2.651,12.188-.8,21.461-2.916,25.435-3.711,6.624-3.976,15.632-3.711,20.136,1.59,25.435,16.17,37.887,20.676,35.5,4.771-2.649-6.892-27.289-.53-50.075C685.2,228.851,683.608,222.492,682.548,215.6Z" transform="translate(-574.481 -188.613)" fill="#333"/>
    <path id="Path_5724" data-name="Path 5724" d="M713.037,229.5a15.636,15.636,0,0,0-2.121-1.06c-12.194-3.444-59.642-8.478-71.571-14.042a43.877,43.877,0,0,1-3.446,10.068c20.146,8.743,72.9,25.17,78.463,18.546C719.4,236.92,716.483,231.886,713.037,229.5Z" transform="translate(-615.042 -146.078)" fill="#fcd2c5"/>
    <path id="Path_5725" data-name="Path 5725" d="M771.759,204.74c-35.52,12.982-64.414,36.562-65.739,37.092-5.3-.795-12.459-1.855-19.881-2.914-16.435-2.385-36.581-5.034-43.738-8.213l-5.3,14.572c17.495,7.419,59.907,20.136,74.222,18.546,14.844-1.59,68.125-15.1,68.125-28.084C779.711,231.5,775.735,203.15,771.759,204.74Z" transform="translate(-613.061 -162.118)" fill="#3387ff"/>
  </g>
  <path id="Path_5727" data-name="Path 5727" d="M678.394,182.909c-7.687-.265-13.519,2.914-14.844,10.333-.53,2.649,1.325,25.435,13.784,28.614,5.3,1.325,14.844-7.948,15.109-14.042,0,0,.265-8.213.265-8.478C692.973,191.388,686.611,183.174,678.394,182.909Z" transform="translate(-490.845 -55.488)" fill="#fcd2c5"/>
  <path id="Path_5728" data-name="Path 5728" d="M716.216,222.918c4.506-14.042-.265-27.289-7.952-36.033s-18.555-11.128-24.387-8.743c-7.157,3.179-7.422,6.624-7.422,6.624a12.291,12.291,0,0,0-7.687,1.325c-8.748,4.769-8.217,24.64-1.326,30.734-4.506-21.2,8.747-24.64,8.747-24.64s9.278,1.06,13.784,6.359c4.241,4.769,8.217,18.016,5.832,28.084-1.856,7.683-7.952,13.247-1.59,31.264,9.013,25.965-9.808,53.784-2.12,56.7,6.892,2.914,29.953-11.128,33.134-39.742.53-5.034.265-15.367-5.3-23.05A31.624,31.624,0,0,1,716.216,222.918Z" transform="translate(-492.882 -64.763)" fill="#333"/>
  <path id="Path_5729" data-name="Path 5729" d="M676.446,187.911A7.066,7.066,0,0,0,673,189.236a70.83,70.83,0,0,0,3.976,9.008c1.856-.795,3.976-3.974,3.976-5.829C680.687,190.3,678.566,187.647,676.446,187.911Z" transform="translate(-475.113 -47.243)" fill="#fcd2c5"/>
</svg>
