<?xml version="1.0" encoding="utf-8"?>
<!-- Generator: Adobe Illustrator 24.0.2, SVG Export Plug-In . SVG Version: 6.00 Build 0)  -->
<svg version="1.1" id="Warstwa_1" xmlns="http://www.w3.org/2000/svg" xmlns:xlink="http://www.w3.org/1999/xlink" x="0px" y="0px"
	 viewBox="0 0 300 150" style="enable-background:new 0 0 300 150;" xml:space="preserve">
<style type="text/css">
	.st0{fill:#353435;}
	.st1{fill:#D82641;}
	.st2{fill:#4C5056;}
	.st3{fill:none;}
	.st4{fill:#F5B036;}
	.st5{fill:#B86417;}
	.st6{fill:#B86418;}
</style>
<g>
	<polygon class="st0" points="19.767,59.118 19.767,72.5 13.371,77.75 16.848,81.986 19.767,79.59 19.767,90.656 37.384,90.656 
		37.384,84.393 26.075,84.393 26.075,74.411 34.046,67.868 30.569,63.633 26.075,67.322 26.075,59.118 	"/>
	<path class="st0" d="M79.1,59.118h-6.308v19.96h0.045c-0.045,1.577-0.631,3.019-1.758,4.145c-1.126,1.126-2.568,1.712-4.144,1.712
		c-1.577,0-3.065-0.586-4.19-1.712c-1.127-1.126-1.758-2.614-1.758-4.19V59.118H54.68v19.96c0.045,6.713,5.496,12.164,12.255,12.164
		c6.713,0,12.209-5.451,12.209-12.209H79.1V59.118z"/>
	<polygon class="st0" points="117.392,59.118 108.877,59.118 99.64,69.301 99.64,59.118 93.333,59.118 93.333,90.656 99.64,90.656 
		99.64,78.717 102.073,76.239 110.138,90.656 117.662,90.656 106.354,71.463 	"/>
	<polygon class="st1" points="145.457,59.118 129.372,90.702 136.446,90.702 146.223,71.508 155.234,90.702 162.217,90.702 
		147.304,59.118 	"/>
	<path class="st0" d="M185.055,71.463c-0.27-0.089-0.54-0.18-0.9-0.27c-2.884-0.721-4.01-1.622-4.056-3.244
		c-0.045-1.036,0.271-1.532,0.541-1.803c0.811-0.856,2.388-1.171,2.793-1.171c2.749,0,4.055,0.856,6.083,2.163l1.126,0.72
		l3.289-5.362l-1.037-0.675c-2.297-1.488-4.866-3.153-9.461-3.153c-1.622,0-5.001,0.675-7.344,3.108
		c-1.622,1.712-2.433,3.919-2.297,6.442c0.135,3.019,1.531,5.452,4.055,7.119c1.801,1.216,3.739,1.712,4.775,1.982l0.226,0.045
		l0.135,0.045c3.288,1.126,5.226,2.703,5.226,4.415c0,0.811-0.857,3.2-3.47,3.2c-1.396,0-5.135,0-8.47-3.56l-4.595,4.326
		c2.163,2.298,4.685,3.874,7.524,4.776c2.252,0.675,4.145,0.766,5.541,0.766c2.839,0,5.406-1.171,7.255-3.244
		c1.576-1.757,2.522-4.055,2.522-6.263c0-2.252-0.856-4.37-2.477-6.173C190.417,73.896,188.074,72.499,185.055,71.463"/>
	<rect x="208.481" y="59.118" class="st0" width="6.307" height="31.539"/>
	<path class="st0" d="M250.243,59.118h-6.307v19.96h0.045c-0.045,1.577-0.632,3.019-1.757,4.145
		c-1.126,1.126-2.569,1.712-4.145,1.712c-1.577,0-3.064-0.586-4.189-1.712c-1.127-1.126-1.757-2.614-1.757-4.19V59.118h-6.308v19.96
		c0.046,6.713,5.497,12.164,12.255,12.164c6.713,0,12.209-5.451,12.209-12.209h-0.045V59.118z"/>
	<polygon class="st0" points="280.021,59.118 270.784,69.301 270.784,59.118 264.477,59.118 264.477,90.656 270.784,90.656 
		270.784,78.717 273.217,76.239 281.282,90.656 288.806,90.656 277.498,71.463 288.536,59.118 	"/>
</g>
</svg>
