<svg id="Warstwa_1" data-name="Warstwa 1" xmlns="http://www.w3.org/2000/svg" viewBox="0 0 131 23.85"><defs><style>.cls-1{fill:#1d1d1b;}</style></defs><title>logo poziome</title><circle class="cls-1" cx="20.55" cy="20.78" r="2.83"/><circle class="cls-1" cx="2.83" cy="20.78" r="2.83"/><circle class="cls-1" cx="20.55" cy="3.07" r="2.83"/><circle class="cls-1" cx="2.83" cy="3.07" r="2.83"/><path class="cls-1" d="M109,148.3v-2.5l8.12-8.28c2.16-2.17,3.25-4,3.25-5.59a3.92,3.92,0,0,0-1.18-3,4.15,4.15,0,0,0-2.9-1.08,4.94,4.94,0,0,0-4.73,3.09L109,129.4a7.77,7.77,0,0,1,3-3.38,8.09,8.09,0,0,1,4.25-1.15,7.28,7.28,0,0,1,5,1.91,6.52,6.52,0,0,1,2.13,5.12c0,2.32-1.36,4.86-4.1,7.59l-5.87,5.85h10.4v3Z" transform="translate(-68.21 -124.87)"/><path class="cls-1" d="M133.69,134.27a8.2,8.2,0,0,1,5.51,1.92,6.6,6.6,0,0,1,2.25,5.3,6.52,6.52,0,0,1-2.3,5.29,8.32,8.32,0,0,1-5.58,1.94,8.87,8.87,0,0,1-4.7-1.26,6.73,6.73,0,0,1-2.89-3.67l2.59-1.47a4.3,4.3,0,0,0,1.78,2.54,5.69,5.69,0,0,0,3.22.87,5.33,5.33,0,0,0,3.51-1.11,4.3,4.3,0,0,0,0-6.26,5.13,5.13,0,0,0-3.45-1.14h-6.5L128,125.3h12.62v2.86h-9.83l-.4,6.11Z" transform="translate(-68.21 -124.87)"/><path class="cls-1" d="M164.19,131.87h2.68l-4.78,16.43h-2.93L155.24,136l-3.89,12.32h-3.06l-4.83-16.43h3l3.61,12.48,3.88-12.48h2.82l3.86,12.49Z" transform="translate(-68.21 -124.87)"/><path class="cls-1" d="M183.08,131.87h2.86V148.3h-2.86v-2.83a7,7,0,0,1-6.21,3.25,7.9,7.9,0,0,1-5.88-2.51A8.95,8.95,0,0,1,171,134a7.9,7.9,0,0,1,5.88-2.51,7,7,0,0,1,6.21,3.25ZM177.23,146a5.6,5.6,0,0,0,4.17-1.69,6.07,6.07,0,0,0,0-8.38,6,6,0,0,0-8.31,0,6.09,6.09,0,0,0,0,8.38A5.6,5.6,0,0,0,177.23,146Z" transform="translate(-68.21 -124.87)"/><path class="cls-1" d="M199.21,134.63h-4.37v8.9a2.5,2.5,0,0,0,.48,1.73,2,2,0,0,0,1.46.52c.66,0,1.47,0,2.43-.05v2.57c-2.5.32-4.32.12-5.49-.61s-1.74-2.12-1.74-4.16v-8.9h-3.25v-2.76H192v-3.75l2.86-.85v4.6h4.37Z" transform="translate(-68.21 -124.87)"/></svg>