<svg xmlns="http://www.w3.org/2000/svg" width="1528.465" height="876.681" viewBox="0 0 1528.465 876.681">
  <g id="news-header-bg" transform="translate(-88.535 -126.157)">
    <g id="news-header-bg-2" data-name="news-header-bg">
      <path id="Path_990" data-name="Path 990" d="M-3442,5719.493c-176.5,49.095-188.5,215.351-154,335.46s115.5,194.073,292,144.978,448.5-221.247,414-341.356S-3265.5,5670.4-3442,5719.493Z" transform="translate(3996 -5409)" fill="none" stroke="#e6e6e6" stroke-width="2"/>
      <path id="Path_989" data-name="Path 989" d="M-3821.026,6335.6c120.986,177.065,226.963,4.743,379.026-137.117s605-205.816,674-403.187-302.461-108.2-454.524-198.837S-3515.457,5491.715-3734,5736.791-3942.012,6158.534-3821.026,6335.6Z" transform="translate(3996 -5409)" fill="none" stroke="#e6e6e6" stroke-width="2"/>
      <circle id="Ellipse_223" data-name="Ellipse 223" cx="19" cy="19" r="19" transform="translate(144.5 658)" fill="#333"/>
    </g>
    <circle id="Ellipse_225" data-name="Ellipse 225" cx="22" cy="22" r="22" transform="translate(1573 258)" fill="#ffca1b"/>
  </g>
</svg>
