<svg xmlns="http://www.w3.org/2000/svg" width="2744.552" height="3789.807" viewBox="0 0 2744.552 3789.807">
  <g id="single-bg" transform="translate(425.072 -1081.45)">
    <circle id="Ellipse_231" data-name="Ellipse 231" cx="58" cy="58" r="58" transform="translate(-58 2501)" fill="#fff61b"/>
    <path id="Path_1004" data-name="Path 1004" d="M-606,5754.5c52.015,137.4,96.939,277.227,0,429.458s-278.255,235.755-387.755,179.465,42.831-306.991,87.755-489.262,12.5-351.375,122-402.45S-658.015,5617.1-606,5754.5Z" transform="translate(2623 -4381)" fill="none" stroke="#e6e6e6" stroke-width="2"/>
    <path id="Path_1005" data-name="Path 1005" d="M-747,5742c-66.684,30.922-120.472,194.665-114.474,321.475s71.781,216.686,138.465,185.764,134.27-182.644,128.272-309.453S-680.316,5711.078-747,5742Z" transform="translate(2598 -4359)" fill="none" stroke="#e6e6e6" stroke-width="2"/>
    <path id="Path_1006" data-name="Path 1006" d="M-2343.249,5587c78.71-129.7,107.431-14.2,255.743,134.954s297.678,227.881,337.506,461.66-57.113,325.516-178.2,473.457-128.616,142.93-306.136,118.307-224.62-270.62-251.849-567.714S-2421.959,5716.7-2343.249,5587Z" transform="translate(2067 -4172)" fill="none" stroke="#e6e6e6" stroke-width="2"/>
    <circle id="Ellipse_227" data-name="Ellipse 227" cx="61.5" cy="61.5" r="61.5" transform="translate(41 1400)" fill="#ffca1b"/>
    <circle id="Ellipse_228" data-name="Ellipse 228" cx="15.5" cy="15.5" r="15.5" transform="translate(1845.5 3509)" fill="#333"/>
    <circle id="Ellipse_232" data-name="Ellipse 232" cx="39.5" cy="39.5" r="39.5" transform="translate(179 2350)" fill="#333"/>
    <circle id="Ellipse_230" data-name="Ellipse 230" cx="37" cy="37" r="37" transform="translate(1796 1665)" fill="#0131ff"/>
    <path id="Path_1007" data-name="Path 1007" d="M-2245.327,6213.964c-54.058,44.637-112.642,108.8-92.31,222.184S-2218.058,6712.13-2164,6667.493s62.925-296.512,42.594-409.894S-2191.269,6169.327-2245.327,6213.964Z" transform="translate(2373 -4323)" fill="none" stroke="#e6e6e6" stroke-width="2"/>
    <path id="Path_1008" data-name="Path 1008" d="M-2165.376,6228.424c-98.873,61.783-206.026,150.594-168.838,307.528s218.714,381.991,317.588,320.208,115.092-410.406,77.9-567.341S-2066.5,6166.641-2165.376,6228.424Z" transform="translate(-1499.958 -2392.666) rotate(-48)" fill="none" stroke="#e6e6e6" stroke-width="2"/>
    <path id="Path_1139" data-name="Path 1139" d="M-2165.376,6228.424c-98.873,61.783-206.026,150.594-168.838,307.528s218.714,381.991,317.588,320.208,115.092-410.406,77.9-567.341S-2066.5,6166.641-2165.376,6228.424Z" transform="matrix(-0.891, -0.454, 0.454, -0.891, -4912.973, 9309.941)" fill="none" stroke="#e6e6e6" stroke-width="2"/>
    <path id="Path_1137" data-name="Path 1137" d="M-2472.365,8555.808s177.062-.916,186.568,0,206.954-299.031,221.613-517.779-71.581-280.021-162.975-357.212-141.3-170.3-202.6,48.446S-2472.365,8555.808-2472.365,8555.808Z" transform="translate(2324 -4711)" fill="none" stroke="#e6e6e6" stroke-width="1"/>
    <path id="Path_1138" data-name="Path 1138" d="M-2368,7885.936c58.639-5.526,178.063,262.841,110.949,345.645s-192.179-4.125-221.384-83.033S-2426.639,7891.462-2368,7885.936Z" transform="translate(2426 -4828)" fill="none" stroke="#e6e6e6" stroke-width="1"/>
    <circle id="Ellipse_286" data-name="Ellipse 286" cx="30" cy="30" r="30" transform="matrix(-0.259, -0.966, 0.966, -0.259, 119.787, 4143.314)" fill="#333"/>
  </g>
</svg>
