<svg xmlns="http://www.w3.org/2000/svg" width="268.086" height="248.323" viewBox="0 0 268.086 248.323">
  <g id="socialmedia-tab" transform="translate(-103.795 -148.697)">
    <path id="Path_6758" data-name="Path 6758" d="M371.881,178.2" fill="none" stroke="#000" stroke-miterlimit="10" stroke-width="10"/>
    <path id="Path_6759" data-name="Path 6759" d="M313.476,242.145h40.682a10.3,10.3,0,0,1,10.3,10.3v92.244a10.3,10.3,0,0,1-10.3,10.3h-19.2v33.6l-61.35-33.6H173.69a10.3,10.3,0,0,1-10.3-10.3V309.255" fill="none" stroke="#000" stroke-miterlimit="10" stroke-width="10"/>
    <path id="Path_6760" data-name="Path 6760" d="M306.941,208.856A55.007,55.007,0,0,1,288.5,250.014l-73.3,73.3a10.3,10.3,0,0,1-14.563,0L128.1,250.773c-11.356-10.761-19.3-25.141-19.3-41.917a55.163,55.163,0,0,1,95.174-37.97,52.135,52.135,0,0,1,3.9,4.581,52.005,52.005,0,0,1,3.947-4.629,55.161,55.161,0,0,1,95.126,38.018Z" fill="none" stroke="#000" stroke-miterlimit="10" stroke-width="10"/>
    <line id="Line_602" data-name="Line 602" x1="72.17" transform="translate(253.221 315.363)" fill="none" stroke="#000" stroke-miterlimit="10" stroke-width="10"/>
    <line id="Line_603" data-name="Line 603" x1="50.553" transform="translate(274.838 291.043)" fill="none" stroke="#000" stroke-miterlimit="10" stroke-width="10"/>
  </g>
</svg>
