<svg xmlns="http://www.w3.org/2000/svg" width="612" height="443.88" viewBox="0 0 612 443.88">
  <g id="Group_3979" data-name="Group 3979" transform="translate(-840 7680.001)">
    <path id="Path_6753" data-name="Path 6753" d="M54.431,134.052,596.853,491.209,612,467.961,69.578,110.8Z" transform="translate(840 -7764.06)"/>
    <path id="Path_6754" data-name="Path 6754" d="M185.736,156.856l119.432,77.207v-150Z" transform="translate(840 -7764.06)"/>
    <path id="Path_6756" data-name="Path 6756" d="M0,246.825V365.2s0,29.6,28.908,29.6H86.7L305.168,527.94V333.16l-198.359-128.2L86.7,217.224H28.908C0,217.224,0,246.825,0,246.825Z" transform="translate(840 -7764.06)"/>
    <path id="Subtraction_11" data-name="Subtraction 11" d="M668.345,582.852a7.741,7.741,0,0,1-2.8-14.96,182.106,182.106,0,0,0,62.662-40.449l13.208,8.7A196.856,196.856,0,0,1,709.209,562.7a201.243,201.243,0,0,1-38.069,19.63A7.712,7.712,0,0,1,668.345,582.852Zm-37.514-41.37a7.742,7.742,0,0,1-2.5-15.068,134.391,134.391,0,0,0,50.868-31.24l13.2,8.694a150.727,150.727,0,0,1-59.071,37.2A7.613,7.613,0,0,1,630.832,541.481Zm-42.569-42.574a7.8,7.8,0,0,1-4.614-1.527,7.739,7.739,0,0,1,2.47-13.651,88.784,88.784,0,0,0,39.4-23.9l13.09,8.619a104.165,104.165,0,0,1-48.2,30.16A7.9,7.9,0,0,1,588.263,498.907Zm186.773-9.157v0h0l-13.018-8.571a182.476,182.476,0,0,0-91.155-250.4,7.742,7.742,0,0,1,6.044-14.257A197.136,197.136,0,0,1,797.237,398.282a200.438,200.438,0,0,1-5.727,47.689,196.148,196.148,0,0,1-16.474,43.778Zm-51.045-33.612h0l-13.19-8.685a135.294,135.294,0,0,0-82.648-177.283A7.744,7.744,0,0,1,633.13,255.5a150.764,150.764,0,0,1,90.861,200.634Zm-59.8-39.375h0l-14.27-9.4a88.156,88.156,0,0,0,.471-9.084,89.379,89.379,0,0,0-64.272-85.449,7.737,7.737,0,0,1-2.464-13.654,7.761,7.761,0,0,1,6.752-1.222,104.95,104.95,0,0,1,75.454,100.325,103.412,103.412,0,0,1-1.669,18.479Z" transform="translate(598.142 -7855.401)" stroke="#000" stroke-width="10"/>
  </g>
</svg>
