<svg xmlns="http://www.w3.org/2000/svg" xmlns:xlink="http://www.w3.org/1999/xlink" width="741.755" height="782.357" viewBox="0 0 741.755 782.357">
  <defs>
    <filter id="Path_5566" x="99.822" y="252.063" width="520.521" height="530.294" filterUnits="userSpaceOnUse">
      <feOffset dy="40" input="SourceAlpha"/>
      <feGaussianBlur stdDeviation="10" result="blur"/>
      <feFlood flood-color="#e6e6e6" flood-opacity="0.22"/>
      <feComposite operator="in" in2="blur"/>
      <feComposite in="SourceGraphic"/>
    </filter>
  </defs>
  <g id="zespol-ilu-kko" transform="translate(-295.967 -5648.751)">
    <g id="Group_3879" data-name="Group 3879" transform="translate(472.396 5803.629)">
      <path id="Path_5609" data-name="Path 5609" d="M839.205,212.9a24.972,24.972,0,0,0-19.305,9.648h38.886C854.1,217.035,847.2,212.9,839.205,212.9Z" transform="translate(-433.521 -172.104)" fill="#fff"/>
      <path id="Path_5610" data-name="Path 5610" d="M990.337,228.146c-8.273,0-14.617,9.923-22.063,7.994-16.271-3.859-23.166-24.808-41.093-24.808-13.789,0-21.787,17.09-34.749,15.988-20.132-1.93-29.509-29.219-51.3-29.219-20.132,0-30.061,23.43-48.814,25.36-11.031,1.1-19.029-11.853-30.888-11.853-22.615,0-24.545,8.821-45.229,15.436-6.067,1.93-10.48,13.507-17.1,13.507-8,0-14.893,2.481-19.305,7.994h344.183C1018.192,237.518,1005.229,228.146,990.337,228.146Z" transform="translate(-679.8 -198.1)" fill="#fff"/>
    </g>
    <g id="Group_3880" data-name="Group 3880" transform="translate(295.967 5860.125)">
      <g id="Group_3847" data-name="Group 3847" transform="translate(0 0)">
        <g transform="matrix(1, 0, 0, 1, 0, -211.37)" filter="url(#Path_5566)">
          <path id="Path_5566-2" data-name="Path 5566" d="M427.879,246.266h-.811c-127.1,4.328-226.609,110.893-222.282,237.743,4.327,127.121,110.871,226.383,237.966,222.326h.811c126.825-4.868,225.8-110.893,221.471-237.743S554.7,242.48,427.879,246.266Z" transform="translate(-74.83 5.9)" fill="#4cbc1d"/>
        </g>
        <g id="Group_3849" data-name="Group 3849">
          <g id="Group_3449" data-name="Group 3449" transform="translate(165.346 72.645)">
            <g id="Group_3448" data-name="Group 3448">
              <g id="Group_3447" data-name="Group 3447">
                <path id="Path_5570" data-name="Path 5570" d="M241.186,258.2c-13.552,0-30.086,11.108-30.086,29.53,0,27.633,30.086,57.7,30.086,57.7s30.086-29.8,30.086-57.7C271.273,269.308,255.552,258.2,241.186,258.2Zm-.271,46.868a17.339,17.339,0,1,1,17.347-17.339A17.464,17.464,0,0,1,240.915,305.068Z" transform="translate(-211.1 -258.2)" fill="#333" fill-rule="evenodd"/>
              </g>
            </g>
          </g>
          <g id="Group_3450" data-name="Group 3450" transform="translate(85.983 100.444)">
            <path id="Path_5571" data-name="Path 5571" d="M218.005,317.255A27.847,27.847,0,0,1,211.5,315.9c2.168,1.355,1.084,2.438,3.253,4.064,1.084.271,5.421-.271,5.421-1.355C220.445,316.984,219.089,317.255,218.005,317.255Z" transform="translate(-131.053 -187.381)" fill="#fcd2c5"/>
            <path id="Path_5572" data-name="Path 5572" d="M229.855,326.878c-.271-.271-5.15-5.147-7.589-7.044a51.015,51.015,0,0,0-6.234-4.335s-6.505,5.147-8.131,7.315c3.253,2.709,14.366,10.295,14.637,10.566,3.795,3.793,5.963,3.522,5.963,1.9,0-.271,3.253,1.355,3.795,0a1.79,1.79,0,0,0,1.9-.813,7.726,7.726,0,0,0,0-3.522C233.65,330.4,230.939,327.962,229.855,326.878Z" transform="translate(-137.211 -188.065)" fill="#fcd2c5"/>
            <path id="Path_5573" data-name="Path 5573" d="M214.343,269.108c-.271-2.167-24.936,1.625-28.731,3.793-8.673,5.147,4.337,57.434,12.2,75.043,2.982,6.773,19.787,13.275,17.347-9.753C213.259,319.5,216.24,280.758,214.343,269.108Z" transform="translate(-180.245 -268.461)" fill="#fcd2c5"/>
            <path id="Path_5574" data-name="Path 5574" d="M186.916,272.9c-5.963,3.251-7.047,28.717-1.355,49.848,2.439,0,10.029-1.084,12.468-1.355a131.4,131.4,0,0,0,20.6-3.793c-1.9-18.422-1.355-40.366-2.982-48.494C215.376,266.941,190.711,270.734,186.916,272.9Z" transform="translate(-181.82 -268.461)" fill="#febb00"/>
            <path id="Path_5575" data-name="Path 5575" d="M202.753,296.158a4.86,4.86,0,0,0-1.9-1.354c-3.524-1.9-9.758-2.167-12.739,5.689-3.253,8.4,37.4,47.41,55.294,60.956a46.8,46.8,0,0,1,7.318-8.127C239.887,345.194,211.969,305.369,202.753,296.158Z" transform="translate(-171.365 -225.344)" fill="#fcd2c5"/>
          </g>
          <path id="Path_5580" data-name="Path 5580" d="M172.309,349.4c-.542,7.315,13.823,168.509,13.823,168.509,0,.271,6.234.813,10.029-2.167,0,0,8.945-157.943,9.216-161.194C202.667,356.986,176.375,352.651,172.309,349.4Z" transform="translate(-112.13 -29.68)" fill="#fcd2c5"/>
          <path id="Path_5576" data-name="Path 5576" d="M155.009,349.4c-.542,7.315,13.824,168.509,13.824,168.509,0,.271,6.234.813,10.029-2.167,0,0,8.945-157.943,9.216-161.194C185.367,356.986,159.075,352.651,155.009,349.4Z" transform="translate(-141.721 -29.68)" fill="#fcd2c5"/>
          <path id="Path_5577" data-name="Path 5577" d="M172.385,413.435c-1.355-1.626-3.253-4.335-3.253-4.335l-8.4,4.606s-.813.813-.271,3.522a7.952,7.952,0,0,0,.271,5.689c.813,1.625,6.234,2.98,8.945,4.605,2.168,1.355,5.963,1.626,10.029,1.355s9.216-2.438,9.216-4.876C188.919,419.124,175.1,416.686,172.385,413.435Z" transform="translate(-133.077 72.356)" fill="#333"/>
          <path id="Path_5583" data-name="Path 5583" d="M168.6,311.535v53.1c4.066,3.251,2.982,50.661,10.029,100.78,8.4,57.976,12.739,119.745,12.739,119.745,4.066,4.606,12.468,0,12.468-.271,0,0,23.039-266.851,21.413-277.688C218.473,309.909,188.929,312.889,168.6,311.535Z" transform="translate(-118.45 -101.806)" fill="#fa6c51"/>
          <path id="Path_5578" data-name="Path 5578" d="M159.9,412.964s.271,1.9.542,4.606c0,0,5.15,1.9,7.047.813a14.848,14.848,0,0,0,4.879-4.606,19.966,19.966,0,0,1-2.982-4.876Z" transform="translate(-133.331 72.014)" fill="#fcd2c5"/>
          <path id="Path_5579" data-name="Path 5579" d="M151.3,311.535v53.1c4.066,3.251,2.982,50.661,10.029,100.78,8.4,57.976,12.739,119.745,12.739,119.745,4.066,4.606,12.468,0,12.468-.271,0,0,23.039-266.851,21.413-277.688C201.173,309.909,171.629,312.889,151.3,311.535Z" transform="translate(-148.041 -101.806)" fill="#fb836f"/>
          <path id="Path_5581" data-name="Path 5581" d="M189.685,413.435c-1.355-1.626-3.253-4.335-3.253-4.335l-8.4,4.606s-.813.813-.271,3.522a7.952,7.952,0,0,0,.271,5.689c.813,1.625,6.505,3.793,8.945,4.605A26.367,26.367,0,0,0,197,428.877c4.066-.271,9.216-2.438,9.216-4.876C206.219,419.124,192.4,416.686,189.685,413.435Z" transform="translate(-103.485 72.356)" fill="#333"/>
          <path id="Path_5582" data-name="Path 5582" d="M177.2,412.964s.271,1.9.542,4.606c0,0,5.15,1.9,7.047.813a14.848,14.848,0,0,0,4.879-4.606,19.969,19.969,0,0,1-2.981-4.876Z" transform="translate(-103.739 72.014)" fill="#fcd2c5"/>
          <path id="Path_5584" data-name="Path 5584" d="M150.1,326.053c.271,4.335,19.516,15.984,73.454,14.088,20.329-.813,24.123,12.191,31.984,7.044,3.524-2.167,3.524-28.446,3.524-28.446L157.965,301.4S149.833,321.719,150.1,326.053Z" transform="translate(-150.098 -111.719)" fill="#febb00"/>
          <path id="Path_5585" data-name="Path 5585" d="M259.4,274.213c-2.439-1.9-16.534-8.4-16.534-8.4s-4.066,4.064-8.131,2.98c-5.963-1.355-13.823-10.295-13.823-10.295s-13.281,1.084-17.618,2.167c-17.076,4.335-24.665,28.446-27.1,39.554-.813,4.064-26.021,73.96-24.123,79.378,4.879,13.546,96.764,33.052,104.9,22.486,3.253-4.335,10.029-92.653,10.3-101.322C267.531,291.823,268.886,281.8,259.4,274.213Z" transform="translate(-146.908 -185.042)" fill="#febb00"/>
          <path id="Path_5586" data-name="Path 5586" d="M183.434,249.6c0,5.689-3.795,21.131-6.234,23.841,3.253,10.837,20.058,13.275,22.226,7.315-1.9-7.044,2.711-18.693,2.982-19.777C198.342,260.978,184.789,250.955,183.434,249.6Z" transform="translate(-103.739 -200.253)" fill="#fcd2c5"/>
          <path id="Path_5587" data-name="Path 5587" d="M195.965,243.02c-8.4-.542-14.366,5.96-14.908,14.088l-.542,8.4c-.542,6.231,8.4,16.526,13.823,15.984,13.01-1.9,17.347-24.924,17.076-27.633C210.872,246.271,203.825,243.562,195.965,243.02Z" transform="translate(-98.11 -211.554)" fill="#fcd2c5"/>
          <path id="Path_5588" data-name="Path 5588" d="M214.971,248.254c-.542-4.064-13.281-15.713-28.46-4.606-22.226,16.526-1.626,33.323-1.626,33.323-.542-5.689,8.674-26.008,26.563-23.3,0,0,8.945,5.96,4.066,19.777C222.29,271.282,227.982,252.589,214.971,248.254Z" transform="translate(-105.461 -218.413)" fill="#3387ff"/>
          <path id="Path_5589" data-name="Path 5589" d="M180.95,256.891c-5.963,14.629-9.758,14.9-15.721,18.151-28.731,16.526,1.084,62.852,8.673,48.494,2.982-5.689-12.2-15.984,12.468-22.757,27.376-7.315,20.057-20.861,20.329-29.8.271-33.323,14.637-23.028,17.347-15.984,1.626,4.335,5.421,2.709,6.776-.271C235.7,241.991,200.195,208.127,180.95,256.891Z" transform="translate(-145.165 -231.385)" fill="#3387ff"/>
          <path id="Path_5590" data-name="Path 5590" d="M186.219,238.912a4.7,4.7,0,0,0-3.253.271c-4.337,1.9-4.879,4.606-4.066,7.586,0,0,5.15-4.335,10.842-5.418C190.014,241.35,188.658,239.454,186.219,238.912Z" transform="translate(-101.374 -218.824)" fill="#333"/>
          <g id="Group_3452" data-name="Group 3452" transform="translate(39.677 83.149)">
            <g id="Group_3451" data-name="Group 3451">
              <path id="Path_5591" data-name="Path 5591" d="M223.263,286.334a18.509,18.509,0,0,1-5.963,2.438c2.439-.271,2.439,1.354,4.879,1.354,1.084-.271,4.337-3.251,3.795-4.335C225.16,284.709,224.076,285.793,223.263,286.334Z" transform="translate(-74.826 -222.336)" fill="#fcd2c5"/>
              <path id="Path_5592" data-name="Path 5592" d="M241.721,289.266c-1.084-.542-4.337-.813-5.692-1.084-.542,0-7.318-1.355-10.3-1.355a35.538,35.538,0,0,0-7.589,0c-.271,0-2.439,8.127-2.439,10.566,4.337.271,17.618.271,17.889.271,5.15,1.084,6.776-.542,5.963-1.625-.271-.271,3.524-.813,2.982-2.167a2,2,0,0,0,1.084-1.626A4.792,4.792,0,0,0,241.721,289.266Z" transform="translate(-77.563 -220.121)" fill="#fcd2c5"/>
              <path id="Path_5593" data-name="Path 5593" d="M175.541,264.581c-3.524,2.438-14.366,20.861-6.776,25.466,10.3,5.96,34.965,22.486,52.583,29.53,21.413,8.94,21.684-6.5,16.263-11.378C223.788,294.924,183.944,258.892,175.541,264.581Z" transform="translate(-162.357 -258.83)" fill="#fcd2c5"/>
              <path id="Path_5594" data-name="Path 5594" d="M180.359,262.139c-11.384,2.167-21.684,16.8-11.384,30.072,5.15,6.773,17.347,16.255,32.255,23.028A127.074,127.074,0,0,0,215.325,299.8c1.626-1.9,6.505-7.857,7.86-9.753C208.548,274.33,187.136,261.056,180.359,262.139Z" transform="translate(-164.736 -262.077)" fill="#febb00"/>
              <path id="Path_5595" data-name="Path 5595" d="M187.832,292.715c4.066,7.586,56.649,15.984,79.146,17.068a64.9,64.9,0,0,1,1.355-10.837c-13.552-.271-59.359-17.339-72.1-19.506C190.271,278.628,184.037,285.672,187.832,292.715Z" transform="translate(-127.214 -232.51)" fill="#fcd2c5"/>
            </g>
          </g>
          <path id="Path_5600" data-name="Path 5600" d="M179.216,251.235c-.271,1.9,1.626,5.418,3.253,6.231a69.562,69.562,0,0,0,4.879-8.94A5.245,5.245,0,0,0,184.1,246.9C182.2,246.9,179.488,249.338,179.216,251.235Z" transform="translate(-100.335 -204.868)" fill="#fcd2c5"/>
        </g>
        <path id="Union_4" data-name="Union 4" d="M169.68,452.935c10.587-1.63,17.376-5.974,21.993-11.677a27.914,27.914,0,0,0,3.8-5.974c-1.084-10.039-5.429-19.815-10.045-29.313-1.623-2.99-3.256-6.244-4.608-9.235-11.676-19.274-11.4-31.484-4.617-40.178a32.671,32.671,0,0,1,6.24-5.967,98.624,98.624,0,0,1,9.5-3.531c3.256-1.089,6.517-2.172,9.773-3.531a60.975,60.975,0,0,0,11.127-2.442c52.385-12.488,10.585-54.29,1.624-87.411-1.351-2.713-2.435-4.884-3.8-7.056-4.068-6.244-9.776-9.776-26.871-11.677a68.881,68.881,0,0,0-7.6-.271,41.151,41.151,0,0,1-11.946-1.623,39.611,39.611,0,0,1-9.773-4.073,36.8,36.8,0,0,0-6.782-11.136,32.071,32.071,0,0,0-7.6-6.244,33.486,33.486,0,0,0-8.413-3.795c-6.3-7.07-14.289-6.109-22.4-5.155-9.031,1.061-18.22,2.129-25.365-7.875a10.29,10.29,0,0,1,1.893-7.334c1.9-2.713,5.705-5.425,12.49-7.056,8.41-1.9,14.927-3.261,20.358-4.343,13.839-2.713,20.9-14.389,35.011-24.977a126.533,126.533,0,0,0,20.088-19c2.984-5.7,3.8-11.4,18.456-18.462,9.432-4.656,18.37-1.922,26.179.812,8.586,3,15.8,6.016,20.78-.812,2.714-3.795-1.361-10.039-2.984-13.57-3.528-7.056-4.345-14.39-8.957-20.9a8.156,8.156,0,0,0-4.894-3.795s-7.322-1.36-10.036-3.261a32.446,32.446,0,0,0-20.628-5.432c-.542,0-1.084.277-1.633.277-11.669,2.442-12.218,21.445-26.6,21.445-17.1,0-14.932-16.561-8.962-18.733,5.977-3.531,11.946-1.089,18.465-1.089,7.322,0,22.524-6.785,24.966-6.515,3.805.548,8.961,2.72,12.76,3.531L221.8,66.636c4.61,0,16.825-16.825,3.526-24.97-4.075-2.442-22.8-6.244-22.8-6.244-5.156-.271-10.585-13.3-16.283-12.218-4.345.812-11.406,11.128-33.66,12.218-1.384.071-5.2-.563-9.951-1.2-12.1-1.623-30.268-3.24-29.675,6.892,0,2.99-3.805,5.433-6.522,5.162-5.154-.541-9.494,0-14.379.271A228.877,228.877,0,0,1,222.886.129h.542c57-1.9,109.659,17.373,151.19,50.495A41.328,41.328,0,0,1,360.5,57.95c-1.624.548-3.256,2.172-2.977,4.073.8,8.416,16.276,9.776,11.127,27.419-2.172,7.334-13.848,9.227-21.172,11.406-3.533,1.082-7.6,2.442-8.689,6.515-1.9,7.326-8.413,11.67-10.315,12.481a16.932,16.932,0,0,0-3.8,1.9l-3.533,3.261a13.781,13.781,0,0,0-2.163,10.587c1.623,10.046,11.939,10.587,19.809,7.875,0,0,3.533-1.63,4.075-1.9.812-.278,1.082-.819,1.623-1.089a9.414,9.414,0,0,0,2.991-2.713l1.623-1.089,10.857-15.2s11.406-7.056,16.014.541a16.686,16.686,0,0,0,5.156,5.432c2.175,1.36,19.277,6.515,15.476,1.9-2.44-2.442-4.889-6.515,1.088-10.317,5.7-3.531,11.127,3.8,13.839,11.677,1.112,3.069,3.457,1.1,6.464-.854,2.834-1.844,6.259-3.7,9.822-1.317.819.541,2.984,8.957,3.533,9.5,3.526,5.7,6.512,5.155,13.841,2.983,1.9,4.343,3.526,8.964,5.156,13.578a10.919,10.919,0,0,0-4.073.812c-7.3,2.891-13.267.683-19.141-1.516-5.724-2.143-11.358-4.286-18.048-1.737-15.2,5.7-16.283-9.776-29.31-11.677-15.472-2.172-15.2,8.957-45.6,12.218-14.388,1.631-21.719,11.67-34.748,15.472-7.331,2.172-9.766,8.686-8.955,14.66-2.984,25.788-2.712,69.5,33.66,67.6,11.667-.548,44.515-8.964,50.755,2.713,9.5,18.184,12.757,36.646,14.93,57.009,1.084,10.039,12.218,36.917,12.218,36.917,2.977,8.416,4.61,31.492,5.97,33.393a229.064,229.064,0,0,1-167.2,81.167h-.549q-3.708.123-7.4.123A234.421,234.421,0,0,1,169.68,452.935ZM.131,239.017a231.622,231.622,0,0,1,15.449-91.043l.549.271s3.519.541,4.068,2.72l.27,1.082c.812,3.531,4.068,12.232,14.639,12.232,7.322,0,10.029,8.152,12.474,16.034,1.893,6.522,4.338,13.863,8.945,17.665,2.714,2.172,4.88,4.35,7.054,6.251a33.222,33.222,0,0,1,4.88,9.783,36.873,36.873,0,0,1,2.163,10.872c-1.351,2.991-2.707,5.981-3.8,8.964a95.162,95.162,0,0,0-5.15,12.5,49.534,49.534,0,0,0-2.438,11.962c-.547,3.8-.812,7.6-1.082,11.684,0,3.8,0,7.611.263,11.143a109.938,109.938,0,0,0,9.766,28.807c1.623,2.99-19.526,58.426-18.714,63.866A229.17,229.17,0,0,1,.131,239.017Z" transform="translate(128.382 39.24)" fill="#f2f7ff"/>
      </g>
    </g>
    <g id="Group_3882" data-name="Group 3882" transform="translate(775.382 5648.751)">
      <g id="Group_3637" data-name="Group 3637" transform="translate(0 0)">
        <path id="Path_5708" data-name="Path 5708" d="M620.239,216.269c-2.651-1.06-9.278-3.179-9.543-3.179-1.325-.265-4.506-1.59-5.566-1.59a4.607,4.607,0,0,0-2.916,1.59,1.638,1.638,0,0,0,.265,1.855c-1.06,1.06,2.121,3.179,1.59,3.179-1.325.795-.53,2.649,4.506,4.239.265,0,11.929,5.829,15.9,7.418,1.06-2.385,2.651-10.333,2.386-10.333C624.745,218.389,622.624,217.329,620.239,216.269Z" transform="translate(-592.266 -8.304)" fill="#fcd2c5"/>
        <path id="Path_5709" data-name="Path 5709" d="M704.461,206.413c-11.133,3.709-42.677,24.64-59.642,31.793-20.941,8.743-7.157,20.136,0,19.606,18.82-1.59,69.98-15.1,69.98-24.9C715.064,228.4,706.582,205.618,704.461,206.413Z" transform="translate(-539.974 -16.729)" fill="#fcd2c5"/>
        <path id="Path_5710" data-name="Path 5710" d="M687.038,229.5a15.657,15.657,0,0,0-2.121-1.06c-12.194-3.444-59.643-8.478-71.571-14.042a43.877,43.877,0,0,1-3.446,10.068c20.146,8.743,72.9,25.17,78.463,18.546C693.4,236.92,690.483,231.886,687.038,229.5Z" transform="translate(-579.276 -3.521)" fill="#fcd2c5"/>
        <path id="Path_5711" data-name="Path 5711" d="M745.759,204.74c-35.52,12.982-64.414,36.562-65.739,37.092-5.3-.795-12.459-1.855-19.881-2.914-16.435-2.385-36.581-5.034-43.738-8.213l-5.3,14.572c17.495,7.419,59.907,20.136,74.221,18.546,14.844-1.59,68.125-15.1,68.125-28.084C753.711,231.5,749.735,203.15,745.759,204.74Z" transform="translate(-577.296 -19.561)" fill="#2e79e6"/>
        <g id="Group_3660" data-name="Group 3660">
          <g id="Group_3577" data-name="Group 3577" transform="translate(7.02)">
            <path id="Path_5666" data-name="Path 5666" d="M599.066,299.963c-1.316,5.262.439,11.84-.438,17.541-1.316,7.017-5.7,8.771-8.775,13.156-3.51,5.263-5.265,14.91-3.949,23.242.877,5.262,2.632,9.648,3.949,14.033,1.316,4.824,2.194,10.525.877,15.349-1.755,7.455-10.53,13.156-10.53,44.73,0,28.5,20.621,39.906,26.325,46.923V289l-2.632,2.631A14.974,14.974,0,0,0,599.066,299.963Z" transform="translate(-580.2 -289)" fill="#4cbc1d"/>
            <path id="Path_5667" data-name="Path 5667" d="M602.872,367.935c1.316-4.824,3.071-9.209,3.949-14.033,1.316-8.332-.439-17.98-3.949-23.242-3.071-4.385-7.459-6.578-8.775-13.156-.877-5.7.878-11.84-.438-17.541-.878-3.947-3.072-6.14-4.826-8.332L586.2,289V474.937c5.7-7.016,26.325-17.98,26.325-46.923,0-31.574-9.214-37.275-10.53-44.73C600.679,378.46,601.556,372.759,602.872,367.935Z" transform="translate(-559.875 -289)" fill="#4cbc1d"/>
            <line id="Line_599" data-name="Line 599" y2="149.2" transform="translate(26.977 30.469)" fill="none" stroke="#01b85e" stroke-width="1"/>
          </g>
          <g id="Group_3578" data-name="Group 3578" transform="translate(33.886 119.28)">
            <path id="Path_5668" data-name="Path 5668" d="M612.107,318.831c-1.316,1.754-.878,4.385-1.755,6.139-1.316,2.193-4.826,2.193-7.459,3.07a7.67,7.67,0,0,0-4.826,7.894c0,2.193.878,3.947,1.316,6.139s.439,4.385-.878,5.7c-1.755,2.193-8.775,2.631-11.846,14.471-2.632,10.525,10.969,18.418,14.479,21.926l17.55-67.972-2.194.439C614.739,317.077,612.984,317.516,612.107,318.831Z" transform="translate(-586.323 -316.2)" fill="#febb00"/>
            <path id="Path_5669" data-name="Path 5669" d="M610.221,328.04c0-2.193,1.755-4.385,1.316-6.578a8.916,8.916,0,0,0-2.632-3.947L607.15,316.2,589.6,384.172c4.826-1.316,20.621-1.754,23.254-12.279,3.071-11.4-3.071-15.349-3.51-18.419-.439-2.193.877-3.947,2.193-5.262s3.071-2.631,3.949-4.385c1.755-2.631,1.316-6.578-.439-9.209C613.293,332.426,610.221,330.672,610.221,328.04Z" transform="translate(-575.224 -316.2)" fill="#febb00"/>
            <line id="Line_600" data-name="Line 600" x1="15.095" y2="48.616" transform="translate(15.206 10.096)" fill="none" stroke="#e6a900" stroke-width="1"/>
          </g>
          <path id="Path_5670" data-name="Path 5670" d="M578.6,330.3s12.724,13.595,12.724,22.8c0,2.631-.878,6.14-2.194,10.525-3.949,13.594,5.7,27.189,19.744,27.189h33.784c14.04,0,23.692-13.594,19.744-27.189-1.316-4.385-2.194-7.893-2.194-10.525,0-9.209,12.724-22.8,12.724-22.8Z" transform="translate(-578.6 -149.187)" fill="#333"/>
        </g>
      </g>
      <path id="Path_5712" data-name="Path 5712" d="M674.712,288.7c-1.06,7.154,2.916,165.326,2.916,165.326,0,.265,6.1,1.325,10.073-1.59,0,0,18.291-153.668,18.821-156.848C703.871,298.238,678.423,292.144,674.712,288.7Z" transform="translate(-472.584 119.034)" fill="#fcd2c5"/>
      <path id="Path_5713" data-name="Path 5713" d="M688.1,353.3c-1.326-1.855-2.916-4.5-2.916-4.5l-8.483,3.974s-.8.795-.53,3.444a7.111,7.111,0,0,0,0,5.564c.8,1.59,6.1,3.974,8.482,5.034a23.869,23.869,0,0,0,9.808,1.855c3.976,0,9.278-1.59,9.278-3.974C703.735,360.193,690.481,356.748,688.1,353.3Z" transform="translate(-470.858 218.166)" fill="#febb00"/>
      <g id="Group_3638" data-name="Group 3638" transform="translate(157.832 309.174)">
        <path id="Path_5714" data-name="Path 5714" d="M702.335,347.685c-1.59-2.12-2.651-2.384-2.651-2.384l-9.013,2.649a27.876,27.876,0,0,1,.8,5.3c.53,4.239-7.157,15.632-3.711,18.811,1.59,1.59,6.627-.53,9.543-3.179,2.916-2.914,5.3-5.564,5.831-7.948.8-3.179,3.446-7.683,2.916-9.273C705.516,348.744,702.335,347.685,702.335,347.685Z" transform="translate(-610.059 -96.781)" fill="#febb00"/>
        <path id="Path_5715" data-name="Path 5715" d="M688.1,348.609a16.29,16.29,0,0,1,1.325,5.564,13.677,13.677,0,0,0,6.627-.265c1.856-.53,4.241-5.564,4.241-5.564-1.591-2.12-2.651-3.444-2.651-3.444Z" transform="translate(-608.018 -97.441)" fill="#fcd2c5"/>
        <path id="Path_5716" data-name="Path 5716" d="M710.4,253.09c-19.881,2.384-45.858,1.06-52.485-1.59-.53,5.564,6.362,77.1,14.579,146.25,3.976,33.118,66,107.038,66,107.038,0,.53,7.157,1.325,10.868-3.444,0,0-42.147-83.988-41.087-105.183C710.933,348.47,716.235,287.8,710.4,253.09Z" transform="translate(-657.889 -251.5)" fill="#ffaf33"/>
      </g>
      <path id="Path_5717" data-name="Path 5717" d="M675.6,352.144s0,1.855.265,4.5c0,0,5.036,2.12,6.892,1.325a14.879,14.879,0,0,0,5.037-4.239,21.851,21.851,0,0,1-2.651-5.034Z" transform="translate(-470.821 218.001)" fill="#fcd2c5"/>
      <path id="Path_5718" data-name="Path 5718" d="M676.7,248.495s-6.362,101.474-2.386,150.754c4.506,57.228,4.771,117.636,4.771,117.636,3.711,4.769,11.929.795,12.194.53,0,0,41.617-259.117,40.822-269.714C725.739,250.084,696.581,251.144,676.7,248.495Z" transform="translate(-475.102 51.406)" fill="#ffca1b"/>
      <path id="Path_5719" data-name="Path 5719" d="M663.192,254.9,656.3,282.452c2.916,2.65,15.639,7.684,22.531,6.359,3.181-.53,11.663-18.546,11.663-18.546l6.1,18.281c25.978,6.094,67.33-5.034,67.33-5.034,0-18.281-1.856-39.212-1.856-39.212Z" transform="translate(-504.358 45.798)" fill="#333"/>
      <path id="Path_5720" data-name="Path 5720" d="M687.716,190.7c-1.326,1.06-15.374,9.538-19.616,9.008,0,1.06,3.181,12.982.8,19.606,1.325,6.094,18.025,5.3,22.267-5.034C689.306,211.631,687.186,196.264,687.716,190.7Z" transform="translate(-483.202 -42.613)" fill="#fcd2c5"/>
      <path id="Path_5721" data-name="Path 5721" d="M725.457,203.574c-4.241-.795-16.965-3.974-16.965-3.974s-8.748,8.213-14.579,8.743c-3.976.53-7.687-3.709-7.687-3.709s-14.579,5.034-16.965,6.624c-10.073,6.359-11.928,16.692-10.073,24.9,5.832,28.614-6.892,95.645,1.591,99.354,11.4,4.769,74.752,8.213,98.874-7.948a6.318,6.318,0,0,0,2.916-6.094c-1.326-14.837-6.892-69.416-14.314-93.261C744.543,217.616,738.446,206.224,725.457,203.574Z" transform="translate(-500.267 -27.933)" fill="#3387ff"/>
      <g id="Group_3639" data-name="Group 3639" transform="translate(78.685 142.557)">
        <path id="Path_5722" data-name="Path 5722" d="M646.239,216.269c-2.651-1.06-9.278-3.179-9.543-3.179-1.325-.265-4.506-1.59-5.566-1.59a4.607,4.607,0,0,0-2.916,1.59,1.638,1.638,0,0,0,.265,1.855c-1.06,1.06,2.12,3.179,1.59,3.179-1.325.795-.53,2.649,4.506,4.239.265,0,11.929,5.829,15.9,7.418,1.06-2.385,2.651-10.333,2.386-10.333C650.745,218.389,648.624,217.329,646.239,216.269Z" transform="translate(-628.031 -150.861)" fill="#fcd2c5"/>
        <path id="Path_5723" data-name="Path 5723" d="M730.461,206.413c-11.133,3.709-42.677,24.64-59.642,31.793-20.941,8.743-7.157,20.136,0,19.606,18.82-1.59,69.981-15.1,69.981-24.9C741.064,228.4,732.582,205.618,730.461,206.413Z" transform="translate(-575.739 -159.286)" fill="#fcd2c5"/>
        <path id="Path_6644" data-name="Path 6644" d="M682.548,215.6c-1.06-6.889-1.855-14.042,0-19.606,0-.265-10.073-11.393-13.784-5.829a42.493,42.493,0,0,0-1.59,23.315c2.651,12.188-.8,21.461-2.916,25.435-3.711,6.624-3.976,15.632-3.711,20.136,1.59,25.435,16.17,37.887,20.676,35.5,4.771-2.649-6.892-27.289-.53-50.075C685.2,228.851,683.608,222.492,682.548,215.6Z" transform="translate(-574.481 -188.613)" fill="#333"/>
        <path id="Path_5724" data-name="Path 5724" d="M713.037,229.5a15.636,15.636,0,0,0-2.121-1.06c-12.194-3.444-59.642-8.478-71.571-14.042a43.877,43.877,0,0,1-3.446,10.068c20.146,8.743,72.9,25.17,78.463,18.546C719.4,236.92,716.483,231.886,713.037,229.5Z" transform="translate(-615.042 -146.078)" fill="#fcd2c5"/>
        <path id="Path_5725" data-name="Path 5725" d="M771.759,204.74c-35.52,12.982-64.414,36.562-65.739,37.092-5.3-.795-12.459-1.855-19.881-2.914-16.435-2.385-36.581-5.034-43.738-8.213l-5.3,14.572c17.495,7.419,59.907,20.136,74.222,18.546,14.844-1.59,68.125-15.1,68.125-28.084C779.711,231.5,775.735,203.15,771.759,204.74Z" transform="translate(-613.061 -162.118)" fill="#3387ff"/>
      </g>
      <path id="Path_5727" data-name="Path 5727" d="M678.394,182.909c-7.687-.265-13.519,2.914-14.844,10.333-.53,2.649,1.325,25.435,13.784,28.614,5.3,1.325,14.844-7.948,15.109-14.042,0,0,.265-8.213.265-8.478C692.973,191.388,686.611,183.174,678.394,182.909Z" transform="translate(-490.845 -55.488)" fill="#fcd2c5"/>
      <path id="Path_5728" data-name="Path 5728" d="M716.216,222.918c4.506-14.042-.265-27.289-7.952-36.033s-18.555-11.128-24.387-8.743c-7.157,3.179-7.422,6.624-7.422,6.624a12.291,12.291,0,0,0-7.687,1.325c-8.748,4.769-8.217,24.64-1.326,30.734-4.506-21.2,8.747-24.64,8.747-24.64s9.278,1.06,13.784,6.359c4.241,4.769,8.217,18.016,5.832,28.084-1.856,7.683-7.952,13.247-1.59,31.264,9.013,25.965-9.808,53.784-2.12,56.7,6.892,2.914,29.953-11.128,33.134-39.742.53-5.034.265-15.367-5.3-23.05A31.624,31.624,0,0,1,716.216,222.918Z" transform="translate(-492.882 -64.763)" fill="#333"/>
      <path id="Path_5729" data-name="Path 5729" d="M676.446,187.911A7.066,7.066,0,0,0,673,189.236a70.83,70.83,0,0,0,3.976,9.008c1.856-.795,3.976-3.974,3.976-5.829C680.687,190.3,678.566,187.647,676.446,187.911Z" transform="translate(-475.113 -47.243)" fill="#fcd2c5"/>
    </g>
  </g>
</svg>
